<svg width="449" height="91" viewBox="0 0 449 91" fill="none" xmlns="http://www.w3.org/2000/svg">
<path d="M76.1364 1.72727V89H56.3636L24.8295 43.1477H24.3182V89H0.625V1.72727H20.7386L51.7614 47.4091H52.4432V1.72727H76.1364ZM119.014 89H93.446L122.253 1.72727H154.639L183.446 89H157.878L138.787 25.7614H138.105L119.014 89ZM114.241 54.5682H162.31V72.2955H114.241V54.5682ZM244.499 29C244.271 26.1591 243.206 23.9432 241.303 22.3523C239.428 20.7614 236.572 19.9659 232.737 19.9659C230.294 19.9659 228.291 20.2642 226.729 20.8608C225.195 21.429 224.058 22.2102 223.32 23.2045C222.581 24.1989 222.197 25.3352 222.169 26.6136C222.112 27.6648 222.297 28.6165 222.723 29.4688C223.178 30.2926 223.888 31.0455 224.854 31.7273C225.82 32.3807 227.055 32.9773 228.561 33.517C230.067 34.0568 231.857 34.5398 233.93 34.9659L241.089 36.5C245.919 37.5227 250.053 38.8722 253.49 40.5483C256.928 42.2244 259.74 44.1989 261.928 46.4716C264.115 48.7159 265.72 51.2443 266.743 54.0568C267.794 56.8693 268.334 59.9375 268.362 63.2614C268.334 69 266.899 73.858 264.058 77.8352C261.217 81.8125 257.155 84.8381 251.871 86.9119C246.615 88.9858 240.294 90.0227 232.908 90.0227C225.322 90.0227 218.703 88.9006 213.05 86.6562C207.425 84.4119 203.05 80.9602 199.925 76.3011C196.828 71.6136 195.266 65.6193 195.237 58.3182H217.737C217.879 60.9886 218.547 63.233 219.74 65.0511C220.933 66.8693 222.609 68.2472 224.768 69.1847C226.956 70.1222 229.555 70.5909 232.567 70.5909C235.095 70.5909 237.212 70.2784 238.916 69.6534C240.621 69.0284 241.913 68.1619 242.794 67.054C243.675 65.946 244.129 64.6818 244.158 63.2614C244.129 61.9261 243.689 60.7614 242.837 59.767C242.013 58.7443 240.649 57.8352 238.746 57.0398C236.842 56.2159 234.271 55.4489 231.033 54.7386L222.339 52.8636C214.612 51.1875 208.518 48.3892 204.058 44.4688C199.626 40.5199 197.425 35.1364 197.453 28.3182C197.425 22.7784 198.902 17.9347 201.885 13.7869C204.896 9.61079 209.058 6.35795 214.371 4.02841C219.712 1.69886 225.834 0.534088 232.737 0.534088C239.783 0.534088 245.876 1.71307 251.018 4.07102C256.161 6.42898 260.124 9.75284 262.908 14.0426C265.72 18.304 267.141 23.2898 267.169 29H244.499ZM305.647 89H280.079L308.886 1.72727H341.272L370.079 89H344.511L325.42 25.7614H324.738L305.647 89ZM300.874 54.5682H348.942V72.2955H300.874V54.5682ZM387.484 89V1.72727H448.848V20.8182H411.178V35.8182H445.098V54.9091H411.178V89H387.484Z" fill="#E7E7E7"/>
</svg>
