<svg width="345" height="69" viewBox="0 0 345 69" fill="none" xmlns="http://www.w3.org/2000/svg">
<path opacity="0.5" d="M63.6138 -4.72727V68H47.1365L20.8581 29.7898H20.4319V68H0.687622V-4.72727H17.449L43.3013 33.3409H43.8694V-4.72727H63.6138ZM91.8453 68H70.5385L94.5442 -4.72727H121.533L145.538 68H124.232L108.323 15.3011H107.754L91.8453 68ZM87.868 39.3068H127.925V54.0795H87.868V39.3068ZM188.916 18C188.726 15.6326 187.838 13.786 186.252 12.4602C184.69 11.1345 182.31 10.4716 179.114 10.4716C177.078 10.4716 175.409 10.7202 174.107 11.2173C172.829 11.6908 171.882 12.3419 171.266 13.1705C170.651 13.9991 170.331 14.946 170.308 16.0114C170.26 16.8873 170.414 17.6804 170.769 18.3906C171.148 19.0772 171.74 19.7045 172.545 20.2727C173.35 20.8172 174.38 21.3144 175.634 21.7642C176.889 22.214 178.381 22.6165 180.109 22.9716L186.075 24.25C190.099 25.1023 193.544 26.2268 196.409 27.6236C199.273 29.0204 201.617 30.6657 203.44 32.5597C205.263 34.4299 206.6 36.5369 207.453 38.8807C208.328 41.2244 208.778 43.7812 208.802 46.5511C208.778 51.3333 207.583 55.3816 205.215 58.696C202.848 62.0104 199.462 64.5317 195.059 66.2599C190.679 67.9882 185.412 68.8523 179.257 68.8523C172.935 68.8523 167.419 67.9171 162.708 66.0469C158.021 64.1766 154.375 61.3002 151.771 57.4176C149.19 53.5114 147.888 48.5161 147.864 42.4318H166.614C166.733 44.6572 167.289 46.5275 168.284 48.0426C169.278 49.5578 170.675 50.706 172.474 51.4872C174.297 52.2685 176.463 52.6591 178.972 52.6591C181.079 52.6591 182.843 52.3987 184.264 51.8778C185.684 51.357 186.761 50.6349 187.495 49.7116C188.229 48.7884 188.608 47.7348 188.632 46.5511C188.608 45.4384 188.241 44.4678 187.531 43.6392C186.844 42.7869 185.708 42.0294 184.122 41.3665C182.535 40.6799 180.393 40.0407 177.694 39.4489L170.45 37.8864C164.01 36.4896 158.932 34.1577 155.215 30.8906C151.522 27.5999 149.687 23.1136 149.711 17.4318C149.687 12.8153 150.918 8.77888 153.404 5.32244C155.914 1.84233 159.382 -0.868375 163.809 -2.80966C168.26 -4.75095 173.362 -5.72159 179.114 -5.72159C184.986 -5.72159 190.064 -4.73911 194.349 -2.77415C198.634 -0.809187 201.936 1.9607 204.257 5.53551C206.6 9.08665 207.784 13.2415 207.808 18H188.916ZM232.373 68H211.066L235.072 -4.72727H262.06L286.066 68H264.759L248.85 15.3011H248.282L232.373 68ZM228.395 39.3068H268.452V54.0795H228.395V39.3068ZM293.07 68V-4.72727H344.207V11.1818H312.815V23.6818H341.082V39.5909H312.815V68H293.07Z" fill="url(#paint0_linear_86_301)"/>
<defs>
<linearGradient id="paint0_linear_86_301" x1="32.0001" y1="-11.4789" x2="305.338" y2="124.053" gradientUnits="userSpaceOnUse">
<stop stop-color="#313131"/>
<stop offset="1" stop-color="#313131" stop-opacity="0"/>
</linearGradient>
</defs>
</svg>
