<svg width="36" height="36" viewBox="0 0 36 36" fill="none" xmlns="http://www.w3.org/2000/svg">
<path d="M3 10.5V33H25.5V10.5H3ZM1.75 8H26.75C27.0815 8 27.3995 8.1317 27.6339 8.36612C27.8683 8.60054 28 8.91848 28 9.25V34.25C28 34.5815 27.8683 34.8995 27.6339 35.1339C27.3995 35.3683 27.0815 35.5 26.75 35.5H1.75C1.41848 35.5 1.10054 35.3683 0.866116 35.1339C0.631696 34.8995 0.5 34.5815 0.5 34.25V9.25C0.5 8.91848 0.631696 8.60054 0.866116 8.36612C1.10054 8.1317 1.41848 8 1.75 8ZM35.5 1.75V29.25C35.5 29.5815 35.3683 29.8995 35.1339 30.1339C34.8995 30.3683 34.5815 30.5 34.25 30.5H30.5V28H33V3H13V5.5H10.5V1.75C10.5 1.41848 10.6317 1.10054 10.8661 0.866116C11.1005 0.631696 11.4185 0.5 11.75 0.5H34.25C34.5815 0.5 34.8995 0.631696 35.1339 0.866116C35.3683 1.10054 35.5 1.41848 35.5 1.75ZM8 24.25H20.5V26.75H8V24.25ZM8 16.75H20.5V19.25H8V16.75Z" fill="url(#paint0_linear_86_183)"/>
<defs>
<linearGradient id="paint0_linear_86_183" x1="1.3871" y1="5.12265" x2="37.7848" y2="7.01146" gradientUnits="userSpaceOnUse">
<stop stop-color="#1852FB"/>
<stop offset="1" stop-color="#7CCBF4"/>
</linearGradient>
</defs>
</svg>
