<svg width="434" height="88" viewBox="0 0 434 88" fill="none" xmlns="http://www.w3.org/2000/svg">
<path d="M0.625 0.72727H30.1136L50.3977 50.1591H51.4205L71.7045 0.72727H101.193V88H78.0114V37.5455H77.3295L57.8977 87.3182H43.9205L24.4886 37.2045H23.8068V88H0.625V0.72727ZM121.422 88V0.72727H184.32V19.8182H145.115V34.8182H181.081V53.9091H145.115V68.9091H184.149V88H121.422ZM238.65 88H205.07V0.72727H238.309C247.286 0.72727 255.042 2.47443 261.576 5.96875C268.138 9.43466 273.195 14.4347 276.746 20.9688C280.326 27.4744 282.116 35.2727 282.116 44.3636C282.116 53.4545 280.34 61.267 276.789 67.8011C273.238 74.3068 268.21 79.3068 261.704 82.8011C255.198 86.267 247.513 88 238.65 88ZM228.763 67.8864H237.798C242.116 67.8864 245.795 67.1903 248.835 65.7983C251.903 64.4062 254.232 62.0057 255.823 58.5966C257.442 55.1875 258.252 50.4432 258.252 44.3636C258.252 38.2841 257.428 33.5398 255.781 30.1307C254.161 26.7216 251.775 24.321 248.621 22.929C245.496 21.5369 241.661 20.8409 237.116 20.8409H228.763V67.8864ZM325.771 0.72727V88H302.078V0.72727H325.771ZM368.67 88H343.102L371.909 0.72727H404.295L433.102 88H407.534L388.443 24.7614H387.761L368.67 88ZM363.898 53.5682H411.966V71.2955H363.898V53.5682Z" fill="url(#paint0_linear_99_2)"/>
<defs>
<linearGradient id="paint0_linear_99_2" x1="19.4032" y1="-19.312" x2="97.2438" y2="210.841" gradientUnits="userSpaceOnUse">
<stop stop-color="#313131"/>
<stop offset="1" stop-color="#313131" stop-opacity="0"/>
</linearGradient>
</defs>
</svg>
