<svg width="419" height="88" viewBox="0 0 419 88" fill="none" xmlns="http://www.w3.org/2000/svg">
<path d="M0.567627 0.72727H30.0563L50.3404 50.1591H51.3631L71.6472 0.72727H101.136V88H77.954V37.5455H77.2722L57.8404 87.3182H43.8631L24.4313 37.2045H23.7494V88H0.567627V0.72727ZM121.365 88V0.72727H184.262V19.8182H145.058V34.8182H181.024V53.9091H145.058V68.9091H184.092V88H121.365ZM238.592 88H205.013V0.72727H238.252C247.229 0.72727 254.985 2.47443 261.519 5.96875C268.081 9.43466 273.138 14.4347 276.689 20.9688C280.269 27.4744 282.058 35.2727 282.058 44.3636C282.058 53.4545 280.283 61.267 276.732 67.8011C273.181 74.3068 268.152 79.3068 261.646 82.8011C255.141 86.267 247.456 88 238.592 88ZM228.706 67.8864H237.74C242.058 67.8864 245.737 67.1903 248.777 65.7983C251.845 64.4062 254.175 62.0057 255.766 58.5966C257.385 55.1875 258.195 50.4432 258.195 44.3636C258.195 38.2841 257.371 33.5398 255.723 30.1307C254.104 26.7216 251.717 24.321 248.564 22.929C245.439 21.5369 241.604 20.8409 237.058 20.8409H228.706V67.8864ZM325.714 0.72727V88H302.021V0.72727H325.714ZM368.613 88H343.045L371.852 0.72727H404.238L433.045 88H407.477L388.386 24.7614H387.704L368.613 88ZM363.84 53.5682H411.909V71.2955H363.84V53.5682Z" fill="#E7E7E7"/>
</svg>
