<svg width="449" height="235" viewBox="0 0 449 235" fill="none" xmlns="http://www.w3.org/2000/svg">
<path d="M76.1364 2.00713V89.2799H56.3636L24.8295 43.4276H24.3182V89.2799H0.625V2.00713H20.7386L51.7614 47.689H52.4432V2.00713H76.1364ZM119.014 89.2799H93.446L122.253 2.00713H154.639L183.446 89.2799H157.878L138.787 26.0412H138.105L119.014 89.2799ZM114.241 54.848H162.31V72.5753H114.241V54.848ZM244.499 29.2799C244.271 26.439 243.206 24.223 241.303 22.6321C239.428 21.0412 236.572 20.2458 232.737 20.2458C230.294 20.2458 228.291 20.5441 226.729 21.1407C225.195 21.7088 224.058 22.4901 223.32 23.4844C222.581 24.4787 222.197 25.6151 222.169 26.8935C222.112 27.9446 222.297 28.8963 222.723 29.7486C223.178 30.5725 223.888 31.3253 224.854 32.0071C225.82 32.6605 227.055 33.2571 228.561 33.7969C230.067 34.3367 231.857 34.8196 233.93 35.2458L241.089 36.7799C245.919 37.8026 250.053 39.152 253.49 40.8282C256.928 42.5043 259.74 44.4787 261.928 46.7515C264.115 48.9958 265.72 51.5242 266.743 54.3367C267.794 57.1492 268.334 60.2174 268.362 63.5412C268.334 69.2799 266.899 74.1378 264.058 78.1151C261.217 82.0924 257.155 85.1179 251.871 87.1918C246.615 89.2657 240.294 90.3026 232.908 90.3026C225.322 90.3026 218.703 89.1804 213.05 86.9361C207.425 84.6918 203.05 81.2401 199.925 76.581C196.828 71.8935 195.266 65.8992 195.237 58.598H217.737C217.879 61.2685 218.547 63.5128 219.74 65.331C220.933 67.1492 222.609 68.527 224.768 69.4645C226.956 70.402 229.555 70.8708 232.567 70.8708C235.095 70.8708 237.212 70.5583 238.916 69.9333C240.621 69.3083 241.913 68.4418 242.794 67.3338C243.675 66.2259 244.129 64.9617 244.158 63.5412C244.129 62.206 243.689 61.0412 242.837 60.0469C242.013 59.0242 240.649 58.1151 238.746 57.3196C236.842 56.4958 234.271 55.7287 231.033 55.0185L222.339 53.1435C214.612 51.4674 208.518 48.6691 204.058 44.7486C199.626 40.7997 197.425 35.4162 197.453 28.598C197.425 23.0583 198.902 18.2145 201.885 14.0668C204.896 9.89065 209.058 6.63781 214.371 4.30827C219.712 1.97872 225.834 0.813949 232.737 0.813949C239.783 0.813949 245.876 1.99293 251.018 4.35088C256.161 6.70884 260.124 10.0327 262.908 14.3225C265.72 18.5838 267.141 23.5696 267.169 29.2799H244.499ZM305.647 89.2799H280.079L308.886 2.00713H341.272L370.079 89.2799H344.511L325.42 26.0412H324.738L305.647 89.2799ZM300.874 54.848H348.942V72.5753H300.874V54.848ZM387.484 89.2799V2.00713H448.848V21.098H411.178V36.098H445.098V55.189H411.178V89.2799H387.484ZM0.625 147.007H30.1136L50.3977 196.439H51.4205L71.7045 147.007H101.193V234.28H78.0114V183.825H77.3295L57.8977 233.598H43.9205L24.4886 183.484H23.8068V234.28H0.625V147.007ZM121.422 234.28V147.007H184.32V166.098H145.115V181.098H181.081V200.189H145.115V215.189H184.149V234.28H121.422ZM238.65 234.28H205.07V147.007H238.309C247.286 147.007 255.042 148.754 261.576 152.249C268.138 155.715 273.195 160.715 276.746 167.249C280.326 173.754 282.116 181.553 282.116 190.643C282.116 199.734 280.34 207.547 276.789 214.081C273.238 220.587 268.21 225.587 261.704 229.081C255.198 232.547 247.513 234.28 238.65 234.28ZM228.763 214.166H237.798C242.116 214.166 245.795 213.47 248.835 212.078C251.903 210.686 254.232 208.286 255.823 204.876C257.442 201.467 258.252 196.723 258.252 190.643C258.252 184.564 257.428 179.82 255.781 176.411C254.161 173.001 251.775 170.601 248.621 169.209C245.496 167.817 241.661 167.121 237.116 167.121H228.763V214.166ZM325.771 147.007V234.28H302.078V147.007H325.771ZM368.67 234.28H343.102L371.909 147.007H404.295L433.102 234.28H407.534L388.443 171.041H387.761L368.67 234.28ZM363.898 199.848H411.966V217.575H363.898V199.848Z" fill="url(#paint0_linear_86_303)"/>
<defs>
<linearGradient id="paint0_linear_86_303" x1="22.1146" y1="-9.32314" x2="250.355" y2="365.139" gradientUnits="userSpaceOnUse">
<stop stop-color="#313131"/>
<stop offset="1" stop-color="#313131" stop-opacity="0"/>
</linearGradient>
</defs>
</svg>
