<svg width="92" height="73" viewBox="0 0 92 73" fill="none" xmlns="http://www.w3.org/2000/svg">
<path d="M2.00049 1.03861C2.00049 1.59156 1.55277 2.03981 1.00049 2.03981C0.448204 2.03981 0.000488281 1.59156 0.000488281 1.03861C0.000488281 0.485655 0.448204 0.0373993 1.00049 0.0373993C1.55277 0.0373993 2.00049 0.485655 2.00049 1.03861Z" fill="#4A4A4A"/>
<path d="M2.00049 11.0507C2.00049 11.6036 1.55277 12.0519 1.00049 12.0519C0.448204 12.0519 0.000488281 11.6036 0.000488281 11.0507C0.000488281 10.4977 0.448204 10.0495 1.00049 10.0495C1.55277 10.0495 2.00049 10.4977 2.00049 11.0507Z" fill="#4A4A4A"/>
<path d="M2.00049 21.0627C2.00049 21.6157 1.55277 22.0639 1.00049 22.0639C0.448204 22.0639 0.000488281 21.6157 0.000488281 21.0627C0.000488281 20.5098 0.448204 20.0615 1.00049 20.0615C1.55277 20.0615 2.00049 20.5098 2.00049 21.0627Z" fill="#4A4A4A"/>
<path d="M2.00049 31.0748C2.00049 31.6277 1.55277 32.076 1.00049 32.076C0.448204 32.076 0.000488281 31.6277 0.000488281 31.0748C0.000488281 30.5218 0.448204 30.0736 1.00049 30.0736C1.55277 30.0736 2.00049 30.5218 2.00049 31.0748Z" fill="#4A4A4A"/>
<path d="M2.00049 41.0869C2.00049 41.6398 1.55277 42.0881 1.00049 42.0881C0.448204 42.0881 0.000488281 41.6398 0.000488281 41.0869C0.000488281 40.5339 0.448204 40.0857 1.00049 40.0857C1.55277 40.0857 2.00049 40.5339 2.00049 41.0869Z" fill="#4A4A4A"/>
<path d="M2.00049 51.0989C2.00049 51.6519 1.55277 52.1001 1.00049 52.1001C0.448204 52.1001 0.000488281 51.6519 0.000488281 51.0989C0.000488281 50.546 0.448204 50.0977 1.00049 50.0977C1.55277 50.0977 2.00049 50.546 2.00049 51.0989Z" fill="#4A4A4A"/>
<path d="M2.00049 61.111C2.00049 61.6639 1.55277 62.1122 1.00049 62.1122C0.448204 62.1122 0.000488281 61.6639 0.000488281 61.111C0.000488281 60.558 0.448204 60.1098 1.00049 60.1098C1.55277 60.1098 2.00049 60.558 2.00049 61.111Z" fill="#4A4A4A"/>
<path d="M2.00049 71.123C2.00049 71.676 1.55277 72.1243 1.00049 72.1243C0.448204 72.1243 0.000488281 71.676 0.000488281 71.123C0.000488281 70.5701 0.448204 70.1218 1.00049 70.1218C1.55277 70.1218 2.00049 70.5701 2.00049 71.123Z" fill="#4A4A4A"/>
<path d="M12.0005 1.03861C12.0005 1.59156 11.5528 2.03981 11.0005 2.03981C10.4482 2.03981 10.0005 1.59156 10.0005 1.03861C10.0005 0.485655 10.4482 0.0373993 11.0005 0.0373993C11.5528 0.0373993 12.0005 0.485655 12.0005 1.03861Z" fill="#4A4A4A"/>
<path d="M12.0005 11.0507C12.0005 11.6036 11.5528 12.0519 11.0005 12.0519C10.4482 12.0519 10.0005 11.6036 10.0005 11.0507C10.0005 10.4977 10.4482 10.0495 11.0005 10.0495C11.5528 10.0495 12.0005 10.4977 12.0005 11.0507Z" fill="#4A4A4A"/>
<path d="M12.0005 21.0627C12.0005 21.6157 11.5528 22.0639 11.0005 22.0639C10.4482 22.0639 10.0005 21.6157 10.0005 21.0627C10.0005 20.5098 10.4482 20.0615 11.0005 20.0615C11.5528 20.0615 12.0005 20.5098 12.0005 21.0627Z" fill="#4A4A4A"/>
<path d="M12.0005 31.0748C12.0005 31.6277 11.5528 32.076 11.0005 32.076C10.4482 32.076 10.0005 31.6277 10.0005 31.0748C10.0005 30.5218 10.4482 30.0736 11.0005 30.0736C11.5528 30.0736 12.0005 30.5218 12.0005 31.0748Z" fill="#4A4A4A"/>
<path d="M12.0005 41.0869C12.0005 41.6398 11.5528 42.0881 11.0005 42.0881C10.4482 42.0881 10.0005 41.6398 10.0005 41.0869C10.0005 40.5339 10.4482 40.0857 11.0005 40.0857C11.5528 40.0857 12.0005 40.5339 12.0005 41.0869Z" fill="#4A4A4A"/>
<path d="M12.0005 51.0989C12.0005 51.6519 11.5528 52.1001 11.0005 52.1001C10.4482 52.1001 10.0005 51.6519 10.0005 51.0989C10.0005 50.546 10.4482 50.0977 11.0005 50.0977C11.5528 50.0977 12.0005 50.546 12.0005 51.0989Z" fill="#4A4A4A"/>
<path d="M12.0005 61.111C12.0005 61.6639 11.5528 62.1122 11.0005 62.1122C10.4482 62.1122 10.0005 61.6639 10.0005 61.111C10.0005 60.558 10.4482 60.1098 11.0005 60.1098C11.5528 60.1098 12.0005 60.558 12.0005 61.111Z" fill="#4A4A4A"/>
<path d="M12.0005 71.123C12.0005 71.676 11.5528 72.1243 11.0005 72.1243C10.4482 72.1243 10.0005 71.676 10.0005 71.123C10.0005 70.5701 10.4482 70.1218 11.0005 70.1218C11.5528 70.1218 12.0005 70.5701 12.0005 71.123Z" fill="#4A4A4A"/>
<path d="M22.0005 1.03861C22.0005 1.59156 21.5528 2.03981 21.0005 2.03981C20.4482 2.03981 20.0005 1.59156 20.0005 1.03861C20.0005 0.485655 20.4482 0.0373993 21.0005 0.0373993C21.5528 0.0373993 22.0005 0.485655 22.0005 1.03861Z" fill="#4A4A4A"/>
<path d="M22.0005 11.0507C22.0005 11.6036 21.5528 12.0519 21.0005 12.0519C20.4482 12.0519 20.0005 11.6036 20.0005 11.0507C20.0005 10.4977 20.4482 10.0495 21.0005 10.0495C21.5528 10.0495 22.0005 10.4977 22.0005 11.0507Z" fill="#4A4A4A"/>
<path d="M22.0005 21.0627C22.0005 21.6157 21.5528 22.0639 21.0005 22.0639C20.4482 22.0639 20.0005 21.6157 20.0005 21.0627C20.0005 20.5098 20.4482 20.0615 21.0005 20.0615C21.5528 20.0615 22.0005 20.5098 22.0005 21.0627Z" fill="#4A4A4A"/>
<path d="M22.0005 31.0748C22.0005 31.6277 21.5528 32.076 21.0005 32.076C20.4482 32.076 20.0005 31.6277 20.0005 31.0748C20.0005 30.5218 20.4482 30.0736 21.0005 30.0736C21.5528 30.0736 22.0005 30.5218 22.0005 31.0748Z" fill="#4A4A4A"/>
<path d="M22.0005 41.0869C22.0005 41.6398 21.5528 42.0881 21.0005 42.0881C20.4482 42.0881 20.0005 41.6398 20.0005 41.0869C20.0005 40.5339 20.4482 40.0857 21.0005 40.0857C21.5528 40.0857 22.0005 40.5339 22.0005 41.0869Z" fill="#4A4A4A"/>
<path d="M22.0005 51.0989C22.0005 51.6519 21.5528 52.1001 21.0005 52.1001C20.4482 52.1001 20.0005 51.6519 20.0005 51.0989C20.0005 50.546 20.4482 50.0977 21.0005 50.0977C21.5528 50.0977 22.0005 50.546 22.0005 51.0989Z" fill="#4A4A4A"/>
<path d="M22.0005 61.111C22.0005 61.6639 21.5528 62.1122 21.0005 62.1122C20.4482 62.1122 20.0005 61.6639 20.0005 61.111C20.0005 60.558 20.4482 60.1098 21.0005 60.1098C21.5528 60.1098 22.0005 60.558 22.0005 61.111Z" fill="#4A4A4A"/>
<path d="M22.0005 71.123C22.0005 71.676 21.5528 72.1243 21.0005 72.1243C20.4482 72.1243 20.0005 71.676 20.0005 71.123C20.0005 70.5701 20.4482 70.1218 21.0005 70.1218C21.5528 70.1218 22.0005 70.5701 22.0005 71.123Z" fill="#4A4A4A"/>
<path d="M32.0005 1.03861C32.0005 1.59156 31.5528 2.03981 31.0005 2.03981C30.4482 2.03981 30.0005 1.59156 30.0005 1.03861C30.0005 0.485655 30.4482 0.0373993 31.0005 0.0373993C31.5528 0.0373993 32.0005 0.485655 32.0005 1.03861Z" fill="#4A4A4A"/>
<path d="M32.0005 11.0507C32.0005 11.6036 31.5528 12.0519 31.0005 12.0519C30.4482 12.0519 30.0005 11.6036 30.0005 11.0507C30.0005 10.4977 30.4482 10.0495 31.0005 10.0495C31.5528 10.0495 32.0005 10.4977 32.0005 11.0507Z" fill="#4A4A4A"/>
<path d="M32.0005 21.0627C32.0005 21.6157 31.5528 22.0639 31.0005 22.0639C30.4482 22.0639 30.0005 21.6157 30.0005 21.0627C30.0005 20.5098 30.4482 20.0615 31.0005 20.0615C31.5528 20.0615 32.0005 20.5098 32.0005 21.0627Z" fill="#4A4A4A"/>
<path d="M32.0005 31.0748C32.0005 31.6277 31.5528 32.076 31.0005 32.076C30.4482 32.076 30.0005 31.6277 30.0005 31.0748C30.0005 30.5218 30.4482 30.0736 31.0005 30.0736C31.5528 30.0736 32.0005 30.5218 32.0005 31.0748Z" fill="#4A4A4A"/>
<path d="M32.0005 41.0869C32.0005 41.6398 31.5528 42.0881 31.0005 42.0881C30.4482 42.0881 30.0005 41.6398 30.0005 41.0869C30.0005 40.5339 30.4482 40.0857 31.0005 40.0857C31.5528 40.0857 32.0005 40.5339 32.0005 41.0869Z" fill="#4A4A4A"/>
<path d="M32.0005 51.0989C32.0005 51.6519 31.5528 52.1001 31.0005 52.1001C30.4482 52.1001 30.0005 51.6519 30.0005 51.0989C30.0005 50.546 30.4482 50.0977 31.0005 50.0977C31.5528 50.0977 32.0005 50.546 32.0005 51.0989Z" fill="#4A4A4A"/>
<path d="M32.0005 61.111C32.0005 61.6639 31.5528 62.1122 31.0005 62.1122C30.4482 62.1122 30.0005 61.6639 30.0005 61.111C30.0005 60.558 30.4482 60.1098 31.0005 60.1098C31.5528 60.1098 32.0005 60.558 32.0005 61.111Z" fill="#4A4A4A"/>
<path d="M32.0005 71.123C32.0005 71.676 31.5528 72.1243 31.0005 72.1243C30.4482 72.1243 30.0005 71.676 30.0005 71.123C30.0005 70.5701 30.4482 70.1218 31.0005 70.1218C31.5528 70.1218 32.0005 70.5701 32.0005 71.123Z" fill="#4A4A4A"/>
<path d="M42.0005 1.03861C42.0005 1.59156 41.5528 2.03981 41.0005 2.03981C40.4482 2.03981 40.0005 1.59156 40.0005 1.03861C40.0005 0.485655 40.4482 0.0373993 41.0005 0.0373993C41.5528 0.0373993 42.0005 0.485655 42.0005 1.03861Z" fill="#4A4A4A"/>
<path d="M42.0005 11.0507C42.0005 11.6036 41.5528 12.0519 41.0005 12.0519C40.4482 12.0519 40.0005 11.6036 40.0005 11.0507C40.0005 10.4977 40.4482 10.0495 41.0005 10.0495C41.5528 10.0495 42.0005 10.4977 42.0005 11.0507Z" fill="#4A4A4A"/>
<path d="M42.0005 21.0627C42.0005 21.6157 41.5528 22.0639 41.0005 22.0639C40.4482 22.0639 40.0005 21.6157 40.0005 21.0627C40.0005 20.5098 40.4482 20.0615 41.0005 20.0615C41.5528 20.0615 42.0005 20.5098 42.0005 21.0627Z" fill="#4A4A4A"/>
<path d="M42.0005 31.0748C42.0005 31.6277 41.5528 32.076 41.0005 32.076C40.4482 32.076 40.0005 31.6277 40.0005 31.0748C40.0005 30.5218 40.4482 30.0736 41.0005 30.0736C41.5528 30.0736 42.0005 30.5218 42.0005 31.0748Z" fill="#4A4A4A"/>
<path d="M42.0005 41.0869C42.0005 41.6398 41.5528 42.0881 41.0005 42.0881C40.4482 42.0881 40.0005 41.6398 40.0005 41.0869C40.0005 40.5339 40.4482 40.0857 41.0005 40.0857C41.5528 40.0857 42.0005 40.5339 42.0005 41.0869Z" fill="#4A4A4A"/>
<path d="M42.0005 51.0989C42.0005 51.6519 41.5528 52.1001 41.0005 52.1001C40.4482 52.1001 40.0005 51.6519 40.0005 51.0989C40.0005 50.546 40.4482 50.0977 41.0005 50.0977C41.5528 50.0977 42.0005 50.546 42.0005 51.0989Z" fill="#4A4A4A"/>
<path d="M42.0005 61.111C42.0005 61.6639 41.5528 62.1122 41.0005 62.1122C40.4482 62.1122 40.0005 61.6639 40.0005 61.111C40.0005 60.558 40.4482 60.1098 41.0005 60.1098C41.5528 60.1098 42.0005 60.558 42.0005 61.111Z" fill="#4A4A4A"/>
<path d="M42.0005 71.123C42.0005 71.676 41.5528 72.1243 41.0005 72.1243C40.4482 72.1243 40.0005 71.676 40.0005 71.123C40.0005 70.5701 40.4482 70.1218 41.0005 70.1218C41.5528 70.1218 42.0005 70.5701 42.0005 71.123Z" fill="#4A4A4A"/>
<path d="M52.0005 1.03861C52.0005 1.59156 51.5528 2.03981 51.0005 2.03981C50.4482 2.03981 50.0005 1.59156 50.0005 1.03861C50.0005 0.485655 50.4482 0.0373993 51.0005 0.0373993C51.5528 0.0373993 52.0005 0.485655 52.0005 1.03861Z" fill="#4A4A4A"/>
<path d="M52.0005 11.0507C52.0005 11.6036 51.5528 12.0519 51.0005 12.0519C50.4482 12.0519 50.0005 11.6036 50.0005 11.0507C50.0005 10.4977 50.4482 10.0495 51.0005 10.0495C51.5528 10.0495 52.0005 10.4977 52.0005 11.0507Z" fill="#4A4A4A"/>
<path d="M52.0005 21.0627C52.0005 21.6157 51.5528 22.0639 51.0005 22.0639C50.4482 22.0639 50.0005 21.6157 50.0005 21.0627C50.0005 20.5098 50.4482 20.0615 51.0005 20.0615C51.5528 20.0615 52.0005 20.5098 52.0005 21.0627Z" fill="#4A4A4A"/>
<path d="M52.0005 31.0748C52.0005 31.6277 51.5528 32.076 51.0005 32.076C50.4482 32.076 50.0005 31.6277 50.0005 31.0748C50.0005 30.5218 50.4482 30.0736 51.0005 30.0736C51.5528 30.0736 52.0005 30.5218 52.0005 31.0748Z" fill="#4A4A4A"/>
<path d="M52.0005 41.0869C52.0005 41.6398 51.5528 42.0881 51.0005 42.0881C50.4482 42.0881 50.0005 41.6398 50.0005 41.0869C50.0005 40.5339 50.4482 40.0857 51.0005 40.0857C51.5528 40.0857 52.0005 40.5339 52.0005 41.0869Z" fill="#4A4A4A"/>
<path d="M52.0005 51.0989C52.0005 51.6519 51.5528 52.1001 51.0005 52.1001C50.4482 52.1001 50.0005 51.6519 50.0005 51.0989C50.0005 50.546 50.4482 50.0977 51.0005 50.0977C51.5528 50.0977 52.0005 50.546 52.0005 51.0989Z" fill="#4A4A4A"/>
<path d="M52.0005 61.111C52.0005 61.6639 51.5528 62.1122 51.0005 62.1122C50.4482 62.1122 50.0005 61.6639 50.0005 61.111C50.0005 60.558 50.4482 60.1098 51.0005 60.1098C51.5528 60.1098 52.0005 60.558 52.0005 61.111Z" fill="#4A4A4A"/>
<path d="M52.0005 71.123C52.0005 71.676 51.5528 72.1243 51.0005 72.1243C50.4482 72.1243 50.0005 71.676 50.0005 71.123C50.0005 70.5701 50.4482 70.1218 51.0005 70.1218C51.5528 70.1218 52.0005 70.5701 52.0005 71.123Z" fill="#4A4A4A"/>
<path d="M62.0005 1.03861C62.0005 1.59156 61.5528 2.03981 61.0005 2.03981C60.4482 2.03981 60.0005 1.59156 60.0005 1.03861C60.0005 0.485655 60.4482 0.0373993 61.0005 0.0373993C61.5528 0.0373993 62.0005 0.485655 62.0005 1.03861Z" fill="#4A4A4A"/>
<path d="M62.0005 11.0507C62.0005 11.6036 61.5528 12.0519 61.0005 12.0519C60.4482 12.0519 60.0005 11.6036 60.0005 11.0507C60.0005 10.4977 60.4482 10.0495 61.0005 10.0495C61.5528 10.0495 62.0005 10.4977 62.0005 11.0507Z" fill="#4A4A4A"/>
<path d="M62.0005 21.0627C62.0005 21.6157 61.5528 22.0639 61.0005 22.0639C60.4482 22.0639 60.0005 21.6157 60.0005 21.0627C60.0005 20.5098 60.4482 20.0615 61.0005 20.0615C61.5528 20.0615 62.0005 20.5098 62.0005 21.0627Z" fill="#4A4A4A"/>
<path d="M62.0005 31.0748C62.0005 31.6277 61.5528 32.076 61.0005 32.076C60.4482 32.076 60.0005 31.6277 60.0005 31.0748C60.0005 30.5218 60.4482 30.0736 61.0005 30.0736C61.5528 30.0736 62.0005 30.5218 62.0005 31.0748Z" fill="#4A4A4A"/>
<path d="M62.0005 41.0869C62.0005 41.6398 61.5528 42.0881 61.0005 42.0881C60.4482 42.0881 60.0005 41.6398 60.0005 41.0869C60.0005 40.5339 60.4482 40.0857 61.0005 40.0857C61.5528 40.0857 62.0005 40.5339 62.0005 41.0869Z" fill="#4A4A4A"/>
<path d="M62.0005 51.0989C62.0005 51.6519 61.5528 52.1001 61.0005 52.1001C60.4482 52.1001 60.0005 51.6519 60.0005 51.0989C60.0005 50.546 60.4482 50.0977 61.0005 50.0977C61.5528 50.0977 62.0005 50.546 62.0005 51.0989Z" fill="#4A4A4A"/>
<path d="M62.0005 61.111C62.0005 61.6639 61.5528 62.1122 61.0005 62.1122C60.4482 62.1122 60.0005 61.6639 60.0005 61.111C60.0005 60.558 60.4482 60.1098 61.0005 60.1098C61.5528 60.1098 62.0005 60.558 62.0005 61.111Z" fill="#4A4A4A"/>
<path d="M62.0005 71.123C62.0005 71.676 61.5528 72.1243 61.0005 72.1243C60.4482 72.1243 60.0005 71.676 60.0005 71.123C60.0005 70.5701 60.4482 70.1218 61.0005 70.1218C61.5528 70.1218 62.0005 70.5701 62.0005 71.123Z" fill="#4A4A4A"/>
<path d="M72.0005 1.03861C72.0005 1.59156 71.5528 2.03981 71.0005 2.03981C70.4482 2.03981 70.0005 1.59156 70.0005 1.03861C70.0005 0.485655 70.4482 0.0373993 71.0005 0.0373993C71.5528 0.0373993 72.0005 0.485655 72.0005 1.03861Z" fill="#4A4A4A"/>
<path d="M72.0005 11.0507C72.0005 11.6036 71.5528 12.0519 71.0005 12.0519C70.4482 12.0519 70.0005 11.6036 70.0005 11.0507C70.0005 10.4977 70.4482 10.0495 71.0005 10.0495C71.5528 10.0495 72.0005 10.4977 72.0005 11.0507Z" fill="#4A4A4A"/>
<path d="M72.0005 21.0627C72.0005 21.6157 71.5528 22.0639 71.0005 22.0639C70.4482 22.0639 70.0005 21.6157 70.0005 21.0627C70.0005 20.5098 70.4482 20.0615 71.0005 20.0615C71.5528 20.0615 72.0005 20.5098 72.0005 21.0627Z" fill="#4A4A4A"/>
<path d="M72.0005 31.0748C72.0005 31.6277 71.5528 32.076 71.0005 32.076C70.4482 32.076 70.0005 31.6277 70.0005 31.0748C70.0005 30.5218 70.4482 30.0736 71.0005 30.0736C71.5528 30.0736 72.0005 30.5218 72.0005 31.0748Z" fill="#4A4A4A"/>
<path d="M72.0005 41.0869C72.0005 41.6398 71.5528 42.0881 71.0005 42.0881C70.4482 42.0881 70.0005 41.6398 70.0005 41.0869C70.0005 40.5339 70.4482 40.0857 71.0005 40.0857C71.5528 40.0857 72.0005 40.5339 72.0005 41.0869Z" fill="#4A4A4A"/>
<path d="M72.0005 51.0989C72.0005 51.6519 71.5528 52.1001 71.0005 52.1001C70.4482 52.1001 70.0005 51.6519 70.0005 51.0989C70.0005 50.546 70.4482 50.0977 71.0005 50.0977C71.5528 50.0977 72.0005 50.546 72.0005 51.0989Z" fill="#4A4A4A"/>
<path d="M72.0005 61.111C72.0005 61.6639 71.5528 62.1122 71.0005 62.1122C70.4482 62.1122 70.0005 61.6639 70.0005 61.111C70.0005 60.558 70.4482 60.1098 71.0005 60.1098C71.5528 60.1098 72.0005 60.558 72.0005 61.111Z" fill="#4A4A4A"/>
<path d="M72.0005 71.123C72.0005 71.676 71.5528 72.1243 71.0005 72.1243C70.4482 72.1243 70.0005 71.676 70.0005 71.123C70.0005 70.5701 70.4482 70.1218 71.0005 70.1218C71.5528 70.1218 72.0005 70.5701 72.0005 71.123Z" fill="#4A4A4A"/>
<path d="M82.0005 1.03861C82.0005 1.59156 81.5528 2.03981 81.0005 2.03981C80.4482 2.03981 80.0005 1.59156 80.0005 1.03861C80.0005 0.485655 80.4482 0.0373993 81.0005 0.0373993C81.5528 0.0373993 82.0005 0.485655 82.0005 1.03861Z" fill="#4A4A4A"/>
<path d="M82.0005 11.0507C82.0005 11.6036 81.5528 12.0519 81.0005 12.0519C80.4482 12.0519 80.0005 11.6036 80.0005 11.0507C80.0005 10.4977 80.4482 10.0495 81.0005 10.0495C81.5528 10.0495 82.0005 10.4977 82.0005 11.0507Z" fill="#4A4A4A"/>
<path d="M82.0005 21.0627C82.0005 21.6157 81.5528 22.0639 81.0005 22.0639C80.4482 22.0639 80.0005 21.6157 80.0005 21.0627C80.0005 20.5098 80.4482 20.0615 81.0005 20.0615C81.5528 20.0615 82.0005 20.5098 82.0005 21.0627Z" fill="#4A4A4A"/>
<path d="M82.0005 31.0748C82.0005 31.6277 81.5528 32.076 81.0005 32.076C80.4482 32.076 80.0005 31.6277 80.0005 31.0748C80.0005 30.5218 80.4482 30.0736 81.0005 30.0736C81.5528 30.0736 82.0005 30.5218 82.0005 31.0748Z" fill="#4A4A4A"/>
<path d="M82.0005 41.0869C82.0005 41.6398 81.5528 42.0881 81.0005 42.0881C80.4482 42.0881 80.0005 41.6398 80.0005 41.0869C80.0005 40.5339 80.4482 40.0857 81.0005 40.0857C81.5528 40.0857 82.0005 40.5339 82.0005 41.0869Z" fill="#4A4A4A"/>
<path d="M82.0005 51.0989C82.0005 51.6519 81.5528 52.1001 81.0005 52.1001C80.4482 52.1001 80.0005 51.6519 80.0005 51.0989C80.0005 50.546 80.4482 50.0977 81.0005 50.0977C81.5528 50.0977 82.0005 50.546 82.0005 51.0989Z" fill="#4A4A4A"/>
<path d="M82.0005 61.111C82.0005 61.6639 81.5528 62.1122 81.0005 62.1122C80.4482 62.1122 80.0005 61.6639 80.0005 61.111C80.0005 60.558 80.4482 60.1098 81.0005 60.1098C81.5528 60.1098 82.0005 60.558 82.0005 61.111Z" fill="#4A4A4A"/>
<path d="M82.0005 71.123C82.0005 71.676 81.5528 72.1243 81.0005 72.1243C80.4482 72.1243 80.0005 71.676 80.0005 71.123C80.0005 70.5701 80.4482 70.1218 81.0005 70.1218C81.5528 70.1218 82.0005 70.5701 82.0005 71.123Z" fill="#4A4A4A"/>
<path d="M92.0005 1.03861C92.0005 1.59156 91.5528 2.03981 91.0005 2.03981C90.4482 2.03981 90.0005 1.59156 90.0005 1.03861C90.0005 0.485655 90.4482 0.0373993 91.0005 0.0373993C91.5528 0.0373993 92.0005 0.485655 92.0005 1.03861Z" fill="#4A4A4A"/>
<path d="M92.0005 11.0507C92.0005 11.6036 91.5528 12.0519 91.0005 12.0519C90.4482 12.0519 90.0005 11.6036 90.0005 11.0507C90.0005 10.4977 90.4482 10.0495 91.0005 10.0495C91.5528 10.0495 92.0005 10.4977 92.0005 11.0507Z" fill="#4A4A4A"/>
<path d="M92.0005 21.0627C92.0005 21.6157 91.5528 22.0639 91.0005 22.0639C90.4482 22.0639 90.0005 21.6157 90.0005 21.0627C90.0005 20.5098 90.4482 20.0615 91.0005 20.0615C91.5528 20.0615 92.0005 20.5098 92.0005 21.0627Z" fill="#4A4A4A"/>
<path d="M92.0005 31.0748C92.0005 31.6277 91.5528 32.076 91.0005 32.076C90.4482 32.076 90.0005 31.6277 90.0005 31.0748C90.0005 30.5218 90.4482 30.0736 91.0005 30.0736C91.5528 30.0736 92.0005 30.5218 92.0005 31.0748Z" fill="#4A4A4A"/>
<path d="M92.0005 41.0869C92.0005 41.6398 91.5528 42.0881 91.0005 42.0881C90.4482 42.0881 90.0005 41.6398 90.0005 41.0869C90.0005 40.5339 90.4482 40.0857 91.0005 40.0857C91.5528 40.0857 92.0005 40.5339 92.0005 41.0869Z" fill="#4A4A4A"/>
<path d="M92.0005 51.0989C92.0005 51.6519 91.5528 52.1001 91.0005 52.1001C90.4482 52.1001 90.0005 51.6519 90.0005 51.0989C90.0005 50.546 90.4482 50.0977 91.0005 50.0977C91.5528 50.0977 92.0005 50.546 92.0005 51.0989Z" fill="#4A4A4A"/>
<path d="M92.0005 61.111C92.0005 61.6639 91.5528 62.1122 91.0005 62.1122C90.4482 62.1122 90.0005 61.6639 90.0005 61.111C90.0005 60.558 90.4482 60.1098 91.0005 60.1098C91.5528 60.1098 92.0005 60.558 92.0005 61.111Z" fill="#4A4A4A"/>
<path d="M92.0005 71.123C92.0005 71.676 91.5528 72.1243 91.0005 72.1243C90.4482 72.1243 90.0005 71.676 90.0005 71.123C90.0005 70.5701 90.4482 70.1218 91.0005 70.1218C91.5528 70.1218 92.0005 70.5701 92.0005 71.123Z" fill="#4A4A4A"/>
</svg>
