<svg width="184" height="145" viewBox="0 0 184 145" fill="none" xmlns="http://www.w3.org/2000/svg">
<path d="M2.00049 1.77806C2.00049 2.33101 1.55277 2.77927 1.00049 2.77927C0.448204 2.77927 0.000488281 2.33101 0.000488281 1.77806C0.000488281 1.22511 0.448204 0.776855 1.00049 0.776855C1.55277 0.776855 2.00049 1.22511 2.00049 1.77806Z" fill="#4A4A4A"/>
<path d="M2.00049 11.7901C2.00049 12.3431 1.55277 12.7913 1.00049 12.7913C0.448204 12.7913 0.000488281 12.3431 0.000488281 11.7901C0.000488281 11.2372 0.448204 10.7889 1.00049 10.7889C1.55277 10.7889 2.00049 11.2372 2.00049 11.7901Z" fill="#4A4A4A"/>
<path d="M2.00049 21.8022C2.00049 22.3551 1.55277 22.8034 1.00049 22.8034C0.448204 22.8034 0.000488281 22.3551 0.000488281 21.8022C0.000488281 21.2492 0.448204 20.801 1.00049 20.801C1.55277 20.801 2.00049 21.2492 2.00049 21.8022Z" fill="#4A4A4A"/>
<path d="M2.00049 31.8143C2.00049 32.3672 1.55277 32.8155 1.00049 32.8155C0.448204 32.8155 0.000488281 32.3672 0.000488281 31.8143C0.000488281 31.2613 0.448204 30.813 1.00049 30.813C1.55277 30.813 2.00049 31.2613 2.00049 31.8143Z" fill="#4A4A4A"/>
<path d="M2.00049 41.8263C2.00049 42.3793 1.55277 42.8275 1.00049 42.8275C0.448204 42.8275 0.000488281 42.3793 0.000488281 41.8263C0.000488281 41.2734 0.448204 40.8251 1.00049 40.8251C1.55277 40.8251 2.00049 41.2734 2.00049 41.8263Z" fill="#4A4A4A"/>
<path d="M2.00049 51.8384C2.00049 52.3913 1.55277 52.8396 1.00049 52.8396C0.448204 52.8396 0.000488281 52.3913 0.000488281 51.8384C0.000488281 51.2854 0.448204 50.8372 1.00049 50.8372C1.55277 50.8372 2.00049 51.2854 2.00049 51.8384Z" fill="#4A4A4A"/>
<path d="M2.00049 61.8504C2.00049 62.4034 1.55277 62.8516 1.00049 62.8516C0.448204 62.8516 0.000488281 62.4034 0.000488281 61.8504C0.000488281 61.2975 0.448204 60.8492 1.00049 60.8492C1.55277 60.8492 2.00049 61.2975 2.00049 61.8504Z" fill="#4A4A4A"/>
<path d="M2.00049 71.8625C2.00049 72.4155 1.55277 72.8637 1.00049 72.8637C0.448204 72.8637 0.000488281 72.4155 0.000488281 71.8625C0.000488281 71.3095 0.448204 70.8613 1.00049 70.8613C1.55277 70.8613 2.00049 71.3095 2.00049 71.8625Z" fill="#4A4A4A"/>
<path d="M12.0005 1.77806C12.0005 2.33101 11.5528 2.77927 11.0005 2.77927C10.4482 2.77927 10.0005 2.33101 10.0005 1.77806C10.0005 1.22511 10.4482 0.776855 11.0005 0.776855C11.5528 0.776855 12.0005 1.22511 12.0005 1.77806Z" fill="#4A4A4A"/>
<path d="M12.0005 11.7901C12.0005 12.3431 11.5528 12.7913 11.0005 12.7913C10.4482 12.7913 10.0005 12.3431 10.0005 11.7901C10.0005 11.2372 10.4482 10.7889 11.0005 10.7889C11.5528 10.7889 12.0005 11.2372 12.0005 11.7901Z" fill="#4A4A4A"/>
<path d="M12.0005 21.8022C12.0005 22.3551 11.5528 22.8034 11.0005 22.8034C10.4482 22.8034 10.0005 22.3551 10.0005 21.8022C10.0005 21.2492 10.4482 20.801 11.0005 20.801C11.5528 20.801 12.0005 21.2492 12.0005 21.8022Z" fill="#4A4A4A"/>
<path d="M12.0005 31.8143C12.0005 32.3672 11.5528 32.8155 11.0005 32.8155C10.4482 32.8155 10.0005 32.3672 10.0005 31.8143C10.0005 31.2613 10.4482 30.813 11.0005 30.813C11.5528 30.813 12.0005 31.2613 12.0005 31.8143Z" fill="#4A4A4A"/>
<path d="M12.0005 41.8263C12.0005 42.3793 11.5528 42.8275 11.0005 42.8275C10.4482 42.8275 10.0005 42.3793 10.0005 41.8263C10.0005 41.2734 10.4482 40.8251 11.0005 40.8251C11.5528 40.8251 12.0005 41.2734 12.0005 41.8263Z" fill="#4A4A4A"/>
<path d="M12.0005 51.8384C12.0005 52.3913 11.5528 52.8396 11.0005 52.8396C10.4482 52.8396 10.0005 52.3913 10.0005 51.8384C10.0005 51.2854 10.4482 50.8372 11.0005 50.8372C11.5528 50.8372 12.0005 51.2854 12.0005 51.8384Z" fill="#4A4A4A"/>
<path d="M12.0005 61.8504C12.0005 62.4034 11.5528 62.8516 11.0005 62.8516C10.4482 62.8516 10.0005 62.4034 10.0005 61.8504C10.0005 61.2975 10.4482 60.8492 11.0005 60.8492C11.5528 60.8492 12.0005 61.2975 12.0005 61.8504Z" fill="#4A4A4A"/>
<path d="M12.0005 71.8625C12.0005 72.4155 11.5528 72.8637 11.0005 72.8637C10.4482 72.8637 10.0005 72.4155 10.0005 71.8625C10.0005 71.3095 10.4482 70.8613 11.0005 70.8613C11.5528 70.8613 12.0005 71.3095 12.0005 71.8625Z" fill="#4A4A4A"/>
<path d="M22.0005 1.77806C22.0005 2.33101 21.5528 2.77927 21.0005 2.77927C20.4482 2.77927 20.0005 2.33101 20.0005 1.77806C20.0005 1.22511 20.4482 0.776855 21.0005 0.776855C21.5528 0.776855 22.0005 1.22511 22.0005 1.77806Z" fill="#4A4A4A"/>
<path d="M22.0005 11.7901C22.0005 12.3431 21.5528 12.7913 21.0005 12.7913C20.4482 12.7913 20.0005 12.3431 20.0005 11.7901C20.0005 11.2372 20.4482 10.7889 21.0005 10.7889C21.5528 10.7889 22.0005 11.2372 22.0005 11.7901Z" fill="#4A4A4A"/>
<path d="M22.0005 21.8022C22.0005 22.3551 21.5528 22.8034 21.0005 22.8034C20.4482 22.8034 20.0005 22.3551 20.0005 21.8022C20.0005 21.2492 20.4482 20.801 21.0005 20.801C21.5528 20.801 22.0005 21.2492 22.0005 21.8022Z" fill="#4A4A4A"/>
<path d="M22.0005 31.8143C22.0005 32.3672 21.5528 32.8155 21.0005 32.8155C20.4482 32.8155 20.0005 32.3672 20.0005 31.8143C20.0005 31.2613 20.4482 30.813 21.0005 30.813C21.5528 30.813 22.0005 31.2613 22.0005 31.8143Z" fill="#4A4A4A"/>
<path d="M22.0005 41.8263C22.0005 42.3793 21.5528 42.8275 21.0005 42.8275C20.4482 42.8275 20.0005 42.3793 20.0005 41.8263C20.0005 41.2734 20.4482 40.8251 21.0005 40.8251C21.5528 40.8251 22.0005 41.2734 22.0005 41.8263Z" fill="#4A4A4A"/>
<path d="M22.0005 51.8384C22.0005 52.3913 21.5528 52.8396 21.0005 52.8396C20.4482 52.8396 20.0005 52.3913 20.0005 51.8384C20.0005 51.2854 20.4482 50.8372 21.0005 50.8372C21.5528 50.8372 22.0005 51.2854 22.0005 51.8384Z" fill="#4A4A4A"/>
<path d="M22.0005 61.8504C22.0005 62.4034 21.5528 62.8516 21.0005 62.8516C20.4482 62.8516 20.0005 62.4034 20.0005 61.8504C20.0005 61.2975 20.4482 60.8492 21.0005 60.8492C21.5528 60.8492 22.0005 61.2975 22.0005 61.8504Z" fill="#4A4A4A"/>
<path d="M22.0005 71.8625C22.0005 72.4155 21.5528 72.8637 21.0005 72.8637C20.4482 72.8637 20.0005 72.4155 20.0005 71.8625C20.0005 71.3095 20.4482 70.8613 21.0005 70.8613C21.5528 70.8613 22.0005 71.3095 22.0005 71.8625Z" fill="#4A4A4A"/>
<path d="M32.0005 1.77806C32.0005 2.33101 31.5528 2.77927 31.0005 2.77927C30.4482 2.77927 30.0005 2.33101 30.0005 1.77806C30.0005 1.22511 30.4482 0.776855 31.0005 0.776855C31.5528 0.776855 32.0005 1.22511 32.0005 1.77806Z" fill="#4A4A4A"/>
<path d="M32.0005 11.7901C32.0005 12.3431 31.5528 12.7913 31.0005 12.7913C30.4482 12.7913 30.0005 12.3431 30.0005 11.7901C30.0005 11.2372 30.4482 10.7889 31.0005 10.7889C31.5528 10.7889 32.0005 11.2372 32.0005 11.7901Z" fill="#4A4A4A"/>
<path d="M32.0005 21.8022C32.0005 22.3551 31.5528 22.8034 31.0005 22.8034C30.4482 22.8034 30.0005 22.3551 30.0005 21.8022C30.0005 21.2492 30.4482 20.801 31.0005 20.801C31.5528 20.801 32.0005 21.2492 32.0005 21.8022Z" fill="#4A4A4A"/>
<path d="M32.0005 31.8143C32.0005 32.3672 31.5528 32.8155 31.0005 32.8155C30.4482 32.8155 30.0005 32.3672 30.0005 31.8143C30.0005 31.2613 30.4482 30.813 31.0005 30.813C31.5528 30.813 32.0005 31.2613 32.0005 31.8143Z" fill="#4A4A4A"/>
<path d="M32.0005 41.8263C32.0005 42.3793 31.5528 42.8275 31.0005 42.8275C30.4482 42.8275 30.0005 42.3793 30.0005 41.8263C30.0005 41.2734 30.4482 40.8251 31.0005 40.8251C31.5528 40.8251 32.0005 41.2734 32.0005 41.8263Z" fill="#4A4A4A"/>
<path d="M32.0005 51.8384C32.0005 52.3913 31.5528 52.8396 31.0005 52.8396C30.4482 52.8396 30.0005 52.3913 30.0005 51.8384C30.0005 51.2854 30.4482 50.8372 31.0005 50.8372C31.5528 50.8372 32.0005 51.2854 32.0005 51.8384Z" fill="#4A4A4A"/>
<path d="M32.0005 61.8504C32.0005 62.4034 31.5528 62.8516 31.0005 62.8516C30.4482 62.8516 30.0005 62.4034 30.0005 61.8504C30.0005 61.2975 30.4482 60.8492 31.0005 60.8492C31.5528 60.8492 32.0005 61.2975 32.0005 61.8504Z" fill="#4A4A4A"/>
<path d="M32.0005 71.8625C32.0005 72.4155 31.5528 72.8637 31.0005 72.8637C30.4482 72.8637 30.0005 72.4155 30.0005 71.8625C30.0005 71.3095 30.4482 70.8613 31.0005 70.8613C31.5528 70.8613 32.0005 71.3095 32.0005 71.8625Z" fill="#4A4A4A"/>
<path d="M42.0005 1.77806C42.0005 2.33101 41.5528 2.77927 41.0005 2.77927C40.4482 2.77927 40.0005 2.33101 40.0005 1.77806C40.0005 1.22511 40.4482 0.776855 41.0005 0.776855C41.5528 0.776855 42.0005 1.22511 42.0005 1.77806Z" fill="#4A4A4A"/>
<path d="M42.0005 11.7901C42.0005 12.3431 41.5528 12.7913 41.0005 12.7913C40.4482 12.7913 40.0005 12.3431 40.0005 11.7901C40.0005 11.2372 40.4482 10.7889 41.0005 10.7889C41.5528 10.7889 42.0005 11.2372 42.0005 11.7901Z" fill="#4A4A4A"/>
<path d="M42.0005 21.8022C42.0005 22.3551 41.5528 22.8034 41.0005 22.8034C40.4482 22.8034 40.0005 22.3551 40.0005 21.8022C40.0005 21.2492 40.4482 20.801 41.0005 20.801C41.5528 20.801 42.0005 21.2492 42.0005 21.8022Z" fill="#4A4A4A"/>
<path d="M42.0005 31.8143C42.0005 32.3672 41.5528 32.8155 41.0005 32.8155C40.4482 32.8155 40.0005 32.3672 40.0005 31.8143C40.0005 31.2613 40.4482 30.813 41.0005 30.813C41.5528 30.813 42.0005 31.2613 42.0005 31.8143Z" fill="#4A4A4A"/>
<path d="M42.0005 41.8263C42.0005 42.3793 41.5528 42.8275 41.0005 42.8275C40.4482 42.8275 40.0005 42.3793 40.0005 41.8263C40.0005 41.2734 40.4482 40.8251 41.0005 40.8251C41.5528 40.8251 42.0005 41.2734 42.0005 41.8263Z" fill="#4A4A4A"/>
<path d="M42.0005 51.8384C42.0005 52.3913 41.5528 52.8396 41.0005 52.8396C40.4482 52.8396 40.0005 52.3913 40.0005 51.8384C40.0005 51.2854 40.4482 50.8372 41.0005 50.8372C41.5528 50.8372 42.0005 51.2854 42.0005 51.8384Z" fill="#4A4A4A"/>
<path d="M42.0005 61.8504C42.0005 62.4034 41.5528 62.8516 41.0005 62.8516C40.4482 62.8516 40.0005 62.4034 40.0005 61.8504C40.0005 61.2975 40.4482 60.8492 41.0005 60.8492C41.5528 60.8492 42.0005 61.2975 42.0005 61.8504Z" fill="#4A4A4A"/>
<path d="M42.0005 71.8625C42.0005 72.4155 41.5528 72.8637 41.0005 72.8637C40.4482 72.8637 40.0005 72.4155 40.0005 71.8625C40.0005 71.3095 40.4482 70.8613 41.0005 70.8613C41.5528 70.8613 42.0005 71.3095 42.0005 71.8625Z" fill="#4A4A4A"/>
<path d="M52.0005 1.77806C52.0005 2.33101 51.5528 2.77927 51.0005 2.77927C50.4482 2.77927 50.0005 2.33101 50.0005 1.77806C50.0005 1.22511 50.4482 0.776855 51.0005 0.776855C51.5528 0.776855 52.0005 1.22511 52.0005 1.77806Z" fill="#4A4A4A"/>
<path d="M52.0005 11.7901C52.0005 12.3431 51.5528 12.7913 51.0005 12.7913C50.4482 12.7913 50.0005 12.3431 50.0005 11.7901C50.0005 11.2372 50.4482 10.7889 51.0005 10.7889C51.5528 10.7889 52.0005 11.2372 52.0005 11.7901Z" fill="#4A4A4A"/>
<path d="M52.0005 21.8022C52.0005 22.3551 51.5528 22.8034 51.0005 22.8034C50.4482 22.8034 50.0005 22.3551 50.0005 21.8022C50.0005 21.2492 50.4482 20.801 51.0005 20.801C51.5528 20.801 52.0005 21.2492 52.0005 21.8022Z" fill="#4A4A4A"/>
<path d="M52.0005 31.8143C52.0005 32.3672 51.5528 32.8155 51.0005 32.8155C50.4482 32.8155 50.0005 32.3672 50.0005 31.8143C50.0005 31.2613 50.4482 30.813 51.0005 30.813C51.5528 30.813 52.0005 31.2613 52.0005 31.8143Z" fill="#4A4A4A"/>
<path d="M52.0005 41.8263C52.0005 42.3793 51.5528 42.8275 51.0005 42.8275C50.4482 42.8275 50.0005 42.3793 50.0005 41.8263C50.0005 41.2734 50.4482 40.8251 51.0005 40.8251C51.5528 40.8251 52.0005 41.2734 52.0005 41.8263Z" fill="#4A4A4A"/>
<path d="M52.0005 51.8384C52.0005 52.3913 51.5528 52.8396 51.0005 52.8396C50.4482 52.8396 50.0005 52.3913 50.0005 51.8384C50.0005 51.2854 50.4482 50.8372 51.0005 50.8372C51.5528 50.8372 52.0005 51.2854 52.0005 51.8384Z" fill="#4A4A4A"/>
<path d="M52.0005 61.8504C52.0005 62.4034 51.5528 62.8516 51.0005 62.8516C50.4482 62.8516 50.0005 62.4034 50.0005 61.8504C50.0005 61.2975 50.4482 60.8492 51.0005 60.8492C51.5528 60.8492 52.0005 61.2975 52.0005 61.8504Z" fill="#4A4A4A"/>
<path d="M52.0005 71.8625C52.0005 72.4155 51.5528 72.8637 51.0005 72.8637C50.4482 72.8637 50.0005 72.4155 50.0005 71.8625C50.0005 71.3095 50.4482 70.8613 51.0005 70.8613C51.5528 70.8613 52.0005 71.3095 52.0005 71.8625Z" fill="#4A4A4A"/>
<path d="M62.0005 1.77806C62.0005 2.33101 61.5528 2.77927 61.0005 2.77927C60.4482 2.77927 60.0005 2.33101 60.0005 1.77806C60.0005 1.22511 60.4482 0.776855 61.0005 0.776855C61.5528 0.776855 62.0005 1.22511 62.0005 1.77806Z" fill="#4A4A4A"/>
<path d="M62.0005 11.7901C62.0005 12.3431 61.5528 12.7913 61.0005 12.7913C60.4482 12.7913 60.0005 12.3431 60.0005 11.7901C60.0005 11.2372 60.4482 10.7889 61.0005 10.7889C61.5528 10.7889 62.0005 11.2372 62.0005 11.7901Z" fill="#4A4A4A"/>
<path d="M62.0005 21.8022C62.0005 22.3551 61.5528 22.8034 61.0005 22.8034C60.4482 22.8034 60.0005 22.3551 60.0005 21.8022C60.0005 21.2492 60.4482 20.801 61.0005 20.801C61.5528 20.801 62.0005 21.2492 62.0005 21.8022Z" fill="#4A4A4A"/>
<path d="M62.0005 31.8143C62.0005 32.3672 61.5528 32.8155 61.0005 32.8155C60.4482 32.8155 60.0005 32.3672 60.0005 31.8143C60.0005 31.2613 60.4482 30.813 61.0005 30.813C61.5528 30.813 62.0005 31.2613 62.0005 31.8143Z" fill="#4A4A4A"/>
<path d="M62.0005 41.8263C62.0005 42.3793 61.5528 42.8275 61.0005 42.8275C60.4482 42.8275 60.0005 42.3793 60.0005 41.8263C60.0005 41.2734 60.4482 40.8251 61.0005 40.8251C61.5528 40.8251 62.0005 41.2734 62.0005 41.8263Z" fill="#4A4A4A"/>
<path d="M62.0005 51.8384C62.0005 52.3913 61.5528 52.8396 61.0005 52.8396C60.4482 52.8396 60.0005 52.3913 60.0005 51.8384C60.0005 51.2854 60.4482 50.8372 61.0005 50.8372C61.5528 50.8372 62.0005 51.2854 62.0005 51.8384Z" fill="#4A4A4A"/>
<path d="M62.0005 61.8504C62.0005 62.4034 61.5528 62.8516 61.0005 62.8516C60.4482 62.8516 60.0005 62.4034 60.0005 61.8504C60.0005 61.2975 60.4482 60.8492 61.0005 60.8492C61.5528 60.8492 62.0005 61.2975 62.0005 61.8504Z" fill="#4A4A4A"/>
<path d="M62.0005 71.8625C62.0005 72.4155 61.5528 72.8637 61.0005 72.8637C60.4482 72.8637 60.0005 72.4155 60.0005 71.8625C60.0005 71.3095 60.4482 70.8613 61.0005 70.8613C61.5528 70.8613 62.0005 71.3095 62.0005 71.8625Z" fill="#4A4A4A"/>
<path d="M72.0005 1.77806C72.0005 2.33101 71.5528 2.77927 71.0005 2.77927C70.4482 2.77927 70.0005 2.33101 70.0005 1.77806C70.0005 1.22511 70.4482 0.776855 71.0005 0.776855C71.5528 0.776855 72.0005 1.22511 72.0005 1.77806Z" fill="#4A4A4A"/>
<path d="M72.0005 11.7901C72.0005 12.3431 71.5528 12.7913 71.0005 12.7913C70.4482 12.7913 70.0005 12.3431 70.0005 11.7901C70.0005 11.2372 70.4482 10.7889 71.0005 10.7889C71.5528 10.7889 72.0005 11.2372 72.0005 11.7901Z" fill="#4A4A4A"/>
<path d="M72.0005 21.8022C72.0005 22.3551 71.5528 22.8034 71.0005 22.8034C70.4482 22.8034 70.0005 22.3551 70.0005 21.8022C70.0005 21.2492 70.4482 20.801 71.0005 20.801C71.5528 20.801 72.0005 21.2492 72.0005 21.8022Z" fill="#4A4A4A"/>
<path d="M72.0005 31.8143C72.0005 32.3672 71.5528 32.8155 71.0005 32.8155C70.4482 32.8155 70.0005 32.3672 70.0005 31.8143C70.0005 31.2613 70.4482 30.813 71.0005 30.813C71.5528 30.813 72.0005 31.2613 72.0005 31.8143Z" fill="#4A4A4A"/>
<path d="M72.0005 41.8263C72.0005 42.3793 71.5528 42.8275 71.0005 42.8275C70.4482 42.8275 70.0005 42.3793 70.0005 41.8263C70.0005 41.2734 70.4482 40.8251 71.0005 40.8251C71.5528 40.8251 72.0005 41.2734 72.0005 41.8263Z" fill="#4A4A4A"/>
<path d="M72.0005 51.8384C72.0005 52.3913 71.5528 52.8396 71.0005 52.8396C70.4482 52.8396 70.0005 52.3913 70.0005 51.8384C70.0005 51.2854 70.4482 50.8372 71.0005 50.8372C71.5528 50.8372 72.0005 51.2854 72.0005 51.8384Z" fill="#4A4A4A"/>
<path d="M72.0005 61.8504C72.0005 62.4034 71.5528 62.8516 71.0005 62.8516C70.4482 62.8516 70.0005 62.4034 70.0005 61.8504C70.0005 61.2975 70.4482 60.8492 71.0005 60.8492C71.5528 60.8492 72.0005 61.2975 72.0005 61.8504Z" fill="#4A4A4A"/>
<path d="M72.0005 71.8625C72.0005 72.4155 71.5528 72.8637 71.0005 72.8637C70.4482 72.8637 70.0005 72.4155 70.0005 71.8625C70.0005 71.3095 70.4482 70.8613 71.0005 70.8613C71.5528 70.8613 72.0005 71.3095 72.0005 71.8625Z" fill="#4A4A4A"/>
<path d="M82.0005 1.77806C82.0005 2.33101 81.5528 2.77927 81.0005 2.77927C80.4482 2.77927 80.0005 2.33101 80.0005 1.77806C80.0005 1.22511 80.4482 0.776855 81.0005 0.776855C81.5528 0.776855 82.0005 1.22511 82.0005 1.77806Z" fill="#4A4A4A"/>
<path d="M82.0005 11.7901C82.0005 12.3431 81.5528 12.7913 81.0005 12.7913C80.4482 12.7913 80.0005 12.3431 80.0005 11.7901C80.0005 11.2372 80.4482 10.7889 81.0005 10.7889C81.5528 10.7889 82.0005 11.2372 82.0005 11.7901Z" fill="#4A4A4A"/>
<path d="M82.0005 21.8022C82.0005 22.3551 81.5528 22.8034 81.0005 22.8034C80.4482 22.8034 80.0005 22.3551 80.0005 21.8022C80.0005 21.2492 80.4482 20.801 81.0005 20.801C81.5528 20.801 82.0005 21.2492 82.0005 21.8022Z" fill="#4A4A4A"/>
<path d="M82.0005 31.8143C82.0005 32.3672 81.5528 32.8155 81.0005 32.8155C80.4482 32.8155 80.0005 32.3672 80.0005 31.8143C80.0005 31.2613 80.4482 30.813 81.0005 30.813C81.5528 30.813 82.0005 31.2613 82.0005 31.8143Z" fill="#4A4A4A"/>
<path d="M82.0005 41.8263C82.0005 42.3793 81.5528 42.8275 81.0005 42.8275C80.4482 42.8275 80.0005 42.3793 80.0005 41.8263C80.0005 41.2734 80.4482 40.8251 81.0005 40.8251C81.5528 40.8251 82.0005 41.2734 82.0005 41.8263Z" fill="#4A4A4A"/>
<path d="M82.0005 51.8384C82.0005 52.3913 81.5528 52.8396 81.0005 52.8396C80.4482 52.8396 80.0005 52.3913 80.0005 51.8384C80.0005 51.2854 80.4482 50.8372 81.0005 50.8372C81.5528 50.8372 82.0005 51.2854 82.0005 51.8384Z" fill="#4A4A4A"/>
<path d="M82.0005 61.8504C82.0005 62.4034 81.5528 62.8516 81.0005 62.8516C80.4482 62.8516 80.0005 62.4034 80.0005 61.8504C80.0005 61.2975 80.4482 60.8492 81.0005 60.8492C81.5528 60.8492 82.0005 61.2975 82.0005 61.8504Z" fill="#4A4A4A"/>
<path d="M82.0005 71.8625C82.0005 72.4155 81.5528 72.8637 81.0005 72.8637C80.4482 72.8637 80.0005 72.4155 80.0005 71.8625C80.0005 71.3095 80.4482 70.8613 81.0005 70.8613C81.5528 70.8613 82.0005 71.3095 82.0005 71.8625Z" fill="#4A4A4A"/>
<path d="M92.0005 1.77806C92.0005 2.33101 91.5528 2.77927 91.0005 2.77927C90.4482 2.77927 90.0005 2.33101 90.0005 1.77806C90.0005 1.22511 90.4482 0.776855 91.0005 0.776855C91.5528 0.776855 92.0005 1.22511 92.0005 1.77806Z" fill="#4A4A4A"/>
<path d="M92.0005 11.7901C92.0005 12.3431 91.5528 12.7913 91.0005 12.7913C90.4482 12.7913 90.0005 12.3431 90.0005 11.7901C90.0005 11.2372 90.4482 10.7889 91.0005 10.7889C91.5528 10.7889 92.0005 11.2372 92.0005 11.7901Z" fill="#4A4A4A"/>
<path d="M92.0005 21.8022C92.0005 22.3551 91.5528 22.8034 91.0005 22.8034C90.4482 22.8034 90.0005 22.3551 90.0005 21.8022C90.0005 21.2492 90.4482 20.801 91.0005 20.801C91.5528 20.801 92.0005 21.2492 92.0005 21.8022Z" fill="#4A4A4A"/>
<path d="M92.0005 31.8143C92.0005 32.3672 91.5528 32.8155 91.0005 32.8155C90.4482 32.8155 90.0005 32.3672 90.0005 31.8143C90.0005 31.2613 90.4482 30.813 91.0005 30.813C91.5528 30.813 92.0005 31.2613 92.0005 31.8143Z" fill="#4A4A4A"/>
<path d="M92.0005 41.8263C92.0005 42.3793 91.5528 42.8275 91.0005 42.8275C90.4482 42.8275 90.0005 42.3793 90.0005 41.8263C90.0005 41.2734 90.4482 40.8251 91.0005 40.8251C91.5528 40.8251 92.0005 41.2734 92.0005 41.8263Z" fill="#4A4A4A"/>
<path d="M92.0005 51.8384C92.0005 52.3913 91.5528 52.8396 91.0005 52.8396C90.4482 52.8396 90.0005 52.3913 90.0005 51.8384C90.0005 51.2854 90.4482 50.8372 91.0005 50.8372C91.5528 50.8372 92.0005 51.2854 92.0005 51.8384Z" fill="#4A4A4A"/>
<path d="M92.0005 61.8504C92.0005 62.4034 91.5528 62.8516 91.0005 62.8516C90.4482 62.8516 90.0005 62.4034 90.0005 61.8504C90.0005 61.2975 90.4482 60.8492 91.0005 60.8492C91.5528 60.8492 92.0005 61.2975 92.0005 61.8504Z" fill="#4A4A4A"/>
<path d="M92.0005 71.8625C92.0005 72.4155 91.5528 72.8637 91.0005 72.8637C90.4482 72.8637 90.0005 72.4155 90.0005 71.8625C90.0005 71.3095 90.4482 70.8613 91.0005 70.8613C91.5528 70.8613 92.0005 71.3095 92.0005 71.8625Z" fill="#4A4A4A"/>
<g opacity="0.5">
<path d="M94.0005 73.8649C94.0005 74.4179 93.5528 74.8661 93.0005 74.8661C92.4482 74.8661 92.0005 74.4179 92.0005 73.8649C92.0005 73.312 92.4482 72.8637 93.0005 72.8637C93.5528 72.8637 94.0005 73.312 94.0005 73.8649Z" fill="#4A4A4A"/>
<path d="M94.0005 83.877C94.0005 84.4299 93.5528 84.8782 93.0005 84.8782C92.4482 84.8782 92.0005 84.4299 92.0005 83.877C92.0005 83.324 92.4482 82.8758 93.0005 82.8758C93.5528 82.8758 94.0005 83.324 94.0005 83.877Z" fill="#4A4A4A"/>
<path d="M94.0005 93.889C94.0005 94.442 93.5528 94.8902 93.0005 94.8902C92.4482 94.8902 92.0005 94.442 92.0005 93.889C92.0005 93.3361 92.4482 92.8878 93.0005 92.8878C93.5528 92.8878 94.0005 93.3361 94.0005 93.889Z" fill="#4A4A4A"/>
<path d="M94.0005 103.901C94.0005 104.454 93.5528 104.902 93.0005 104.902C92.4482 104.902 92.0005 104.454 92.0005 103.901C92.0005 103.348 92.4482 102.9 93.0005 102.9C93.5528 102.9 94.0005 103.348 94.0005 103.901Z" fill="#4A4A4A"/>
<path d="M94.0005 113.913C94.0005 114.466 93.5528 114.914 93.0005 114.914C92.4482 114.914 92.0005 114.466 92.0005 113.913C92.0005 113.36 92.4482 112.912 93.0005 112.912C93.5528 112.912 94.0005 113.36 94.0005 113.913Z" fill="#4A4A4A"/>
<path d="M94.0005 123.925C94.0005 124.478 93.5528 124.926 93.0005 124.926C92.4482 124.926 92.0005 124.478 92.0005 123.925C92.0005 123.372 92.4482 122.924 93.0005 122.924C93.5528 122.924 94.0005 123.372 94.0005 123.925Z" fill="#4A4A4A"/>
<path d="M94.0005 133.937C94.0005 134.49 93.5528 134.938 93.0005 134.938C92.4482 134.938 92.0005 134.49 92.0005 133.937C92.0005 133.384 92.4482 132.936 93.0005 132.936C93.5528 132.936 94.0005 133.384 94.0005 133.937Z" fill="#4A4A4A"/>
<path d="M94.0005 143.949C94.0005 144.502 93.5528 144.951 93.0005 144.951C92.4482 144.951 92.0005 144.502 92.0005 143.949C92.0005 143.396 92.4482 142.948 93.0005 142.948C93.5528 142.948 94.0005 143.396 94.0005 143.949Z" fill="#4A4A4A"/>
<path d="M104 73.8649C104 74.4179 103.553 74.8661 103 74.8661C102.448 74.8661 102 74.4179 102 73.8649C102 73.312 102.448 72.8637 103 72.8637C103.553 72.8637 104 73.312 104 73.8649Z" fill="#4A4A4A"/>
<path d="M104 83.877C104 84.4299 103.553 84.8782 103 84.8782C102.448 84.8782 102 84.4299 102 83.877C102 83.324 102.448 82.8758 103 82.8758C103.553 82.8758 104 83.324 104 83.877Z" fill="#4A4A4A"/>
<path d="M104 93.889C104 94.442 103.553 94.8902 103 94.8902C102.448 94.8902 102 94.442 102 93.889C102 93.3361 102.448 92.8878 103 92.8878C103.553 92.8878 104 93.3361 104 93.889Z" fill="#4A4A4A"/>
<path d="M104 103.901C104 104.454 103.553 104.902 103 104.902C102.448 104.902 102 104.454 102 103.901C102 103.348 102.448 102.9 103 102.9C103.553 102.9 104 103.348 104 103.901Z" fill="#4A4A4A"/>
<path d="M104 113.913C104 114.466 103.553 114.914 103 114.914C102.448 114.914 102 114.466 102 113.913C102 113.36 102.448 112.912 103 112.912C103.553 112.912 104 113.36 104 113.913Z" fill="#4A4A4A"/>
<path d="M104 123.925C104 124.478 103.553 124.926 103 124.926C102.448 124.926 102 124.478 102 123.925C102 123.372 102.448 122.924 103 122.924C103.553 122.924 104 123.372 104 123.925Z" fill="#4A4A4A"/>
<path d="M104 133.937C104 134.49 103.553 134.938 103 134.938C102.448 134.938 102 134.49 102 133.937C102 133.384 102.448 132.936 103 132.936C103.553 132.936 104 133.384 104 133.937Z" fill="#4A4A4A"/>
<path d="M104 143.949C104 144.502 103.553 144.951 103 144.951C102.448 144.951 102 144.502 102 143.949C102 143.396 102.448 142.948 103 142.948C103.553 142.948 104 143.396 104 143.949Z" fill="#4A4A4A"/>
<path d="M114 73.8649C114 74.4179 113.553 74.8661 113 74.8661C112.448 74.8661 112 74.4179 112 73.8649C112 73.312 112.448 72.8637 113 72.8637C113.553 72.8637 114 73.312 114 73.8649Z" fill="#4A4A4A"/>
<path d="M114 83.877C114 84.4299 113.553 84.8782 113 84.8782C112.448 84.8782 112 84.4299 112 83.877C112 83.324 112.448 82.8758 113 82.8758C113.553 82.8758 114 83.324 114 83.877Z" fill="#4A4A4A"/>
<path d="M114 93.889C114 94.442 113.553 94.8902 113 94.8902C112.448 94.8902 112 94.442 112 93.889C112 93.3361 112.448 92.8878 113 92.8878C113.553 92.8878 114 93.3361 114 93.889Z" fill="#4A4A4A"/>
<path d="M114 103.901C114 104.454 113.553 104.902 113 104.902C112.448 104.902 112 104.454 112 103.901C112 103.348 112.448 102.9 113 102.9C113.553 102.9 114 103.348 114 103.901Z" fill="#4A4A4A"/>
<path d="M114 113.913C114 114.466 113.553 114.914 113 114.914C112.448 114.914 112 114.466 112 113.913C112 113.36 112.448 112.912 113 112.912C113.553 112.912 114 113.36 114 113.913Z" fill="#4A4A4A"/>
<path d="M114 123.925C114 124.478 113.553 124.926 113 124.926C112.448 124.926 112 124.478 112 123.925C112 123.372 112.448 122.924 113 122.924C113.553 122.924 114 123.372 114 123.925Z" fill="#4A4A4A"/>
<path d="M114 133.937C114 134.49 113.553 134.938 113 134.938C112.448 134.938 112 134.49 112 133.937C112 133.384 112.448 132.936 113 132.936C113.553 132.936 114 133.384 114 133.937Z" fill="#4A4A4A"/>
<path d="M114 143.949C114 144.502 113.553 144.951 113 144.951C112.448 144.951 112 144.502 112 143.949C112 143.396 112.448 142.948 113 142.948C113.553 142.948 114 143.396 114 143.949Z" fill="#4A4A4A"/>
<path d="M124 73.8649C124 74.4179 123.553 74.8661 123 74.8661C122.448 74.8661 122 74.4179 122 73.8649C122 73.312 122.448 72.8637 123 72.8637C123.553 72.8637 124 73.312 124 73.8649Z" fill="#4A4A4A"/>
<path d="M124 83.877C124 84.4299 123.553 84.8782 123 84.8782C122.448 84.8782 122 84.4299 122 83.877C122 83.324 122.448 82.8758 123 82.8758C123.553 82.8758 124 83.324 124 83.877Z" fill="#4A4A4A"/>
<path d="M124 93.889C124 94.442 123.553 94.8902 123 94.8902C122.448 94.8902 122 94.442 122 93.889C122 93.3361 122.448 92.8878 123 92.8878C123.553 92.8878 124 93.3361 124 93.889Z" fill="#4A4A4A"/>
<path d="M124 103.901C124 104.454 123.553 104.902 123 104.902C122.448 104.902 122 104.454 122 103.901C122 103.348 122.448 102.9 123 102.9C123.553 102.9 124 103.348 124 103.901Z" fill="#4A4A4A"/>
<path d="M124 113.913C124 114.466 123.553 114.914 123 114.914C122.448 114.914 122 114.466 122 113.913C122 113.36 122.448 112.912 123 112.912C123.553 112.912 124 113.36 124 113.913Z" fill="#4A4A4A"/>
<path d="M124 123.925C124 124.478 123.553 124.926 123 124.926C122.448 124.926 122 124.478 122 123.925C122 123.372 122.448 122.924 123 122.924C123.553 122.924 124 123.372 124 123.925Z" fill="#4A4A4A"/>
<path d="M124 133.937C124 134.49 123.553 134.938 123 134.938C122.448 134.938 122 134.49 122 133.937C122 133.384 122.448 132.936 123 132.936C123.553 132.936 124 133.384 124 133.937Z" fill="#4A4A4A"/>
<path d="M124 143.949C124 144.502 123.553 144.951 123 144.951C122.448 144.951 122 144.502 122 143.949C122 143.396 122.448 142.948 123 142.948C123.553 142.948 124 143.396 124 143.949Z" fill="#4A4A4A"/>
<path d="M134 73.8649C134 74.4179 133.553 74.8661 133 74.8661C132.448 74.8661 132 74.4179 132 73.8649C132 73.312 132.448 72.8637 133 72.8637C133.553 72.8637 134 73.312 134 73.8649Z" fill="#4A4A4A"/>
<path d="M134 83.877C134 84.4299 133.553 84.8782 133 84.8782C132.448 84.8782 132 84.4299 132 83.877C132 83.324 132.448 82.8758 133 82.8758C133.553 82.8758 134 83.324 134 83.877Z" fill="#4A4A4A"/>
<path d="M134 93.889C134 94.442 133.553 94.8902 133 94.8902C132.448 94.8902 132 94.442 132 93.889C132 93.3361 132.448 92.8878 133 92.8878C133.553 92.8878 134 93.3361 134 93.889Z" fill="#4A4A4A"/>
<path d="M134 103.901C134 104.454 133.553 104.902 133 104.902C132.448 104.902 132 104.454 132 103.901C132 103.348 132.448 102.9 133 102.9C133.553 102.9 134 103.348 134 103.901Z" fill="#4A4A4A"/>
<path d="M134 113.913C134 114.466 133.553 114.914 133 114.914C132.448 114.914 132 114.466 132 113.913C132 113.36 132.448 112.912 133 112.912C133.553 112.912 134 113.36 134 113.913Z" fill="#4A4A4A"/>
<path d="M134 123.925C134 124.478 133.553 124.926 133 124.926C132.448 124.926 132 124.478 132 123.925C132 123.372 132.448 122.924 133 122.924C133.553 122.924 134 123.372 134 123.925Z" fill="#4A4A4A"/>
<path d="M134 133.937C134 134.49 133.553 134.938 133 134.938C132.448 134.938 132 134.49 132 133.937C132 133.384 132.448 132.936 133 132.936C133.553 132.936 134 133.384 134 133.937Z" fill="#4A4A4A"/>
<path d="M134 143.949C134 144.502 133.553 144.951 133 144.951C132.448 144.951 132 144.502 132 143.949C132 143.396 132.448 142.948 133 142.948C133.553 142.948 134 143.396 134 143.949Z" fill="#4A4A4A"/>
<path d="M144 73.8649C144 74.4179 143.553 74.8661 143 74.8661C142.448 74.8661 142 74.4179 142 73.8649C142 73.312 142.448 72.8637 143 72.8637C143.553 72.8637 144 73.312 144 73.8649Z" fill="#4A4A4A"/>
<path d="M144 83.877C144 84.4299 143.553 84.8782 143 84.8782C142.448 84.8782 142 84.4299 142 83.877C142 83.324 142.448 82.8758 143 82.8758C143.553 82.8758 144 83.324 144 83.877Z" fill="#4A4A4A"/>
<path d="M144 93.889C144 94.442 143.553 94.8902 143 94.8902C142.448 94.8902 142 94.442 142 93.889C142 93.3361 142.448 92.8878 143 92.8878C143.553 92.8878 144 93.3361 144 93.889Z" fill="#4A4A4A"/>
<path d="M144 103.901C144 104.454 143.553 104.902 143 104.902C142.448 104.902 142 104.454 142 103.901C142 103.348 142.448 102.9 143 102.9C143.553 102.9 144 103.348 144 103.901Z" fill="#4A4A4A"/>
<path d="M144 113.913C144 114.466 143.553 114.914 143 114.914C142.448 114.914 142 114.466 142 113.913C142 113.36 142.448 112.912 143 112.912C143.553 112.912 144 113.36 144 113.913Z" fill="#4A4A4A"/>
<path d="M144 123.925C144 124.478 143.553 124.926 143 124.926C142.448 124.926 142 124.478 142 123.925C142 123.372 142.448 122.924 143 122.924C143.553 122.924 144 123.372 144 123.925Z" fill="#4A4A4A"/>
<path d="M144 133.937C144 134.49 143.553 134.938 143 134.938C142.448 134.938 142 134.49 142 133.937C142 133.384 142.448 132.936 143 132.936C143.553 132.936 144 133.384 144 133.937Z" fill="#4A4A4A"/>
<path d="M144 143.949C144 144.502 143.553 144.951 143 144.951C142.448 144.951 142 144.502 142 143.949C142 143.396 142.448 142.948 143 142.948C143.553 142.948 144 143.396 144 143.949Z" fill="#4A4A4A"/>
<path d="M154 73.8649C154 74.4179 153.553 74.8661 153 74.8661C152.448 74.8661 152 74.4179 152 73.8649C152 73.312 152.448 72.8637 153 72.8637C153.553 72.8637 154 73.312 154 73.8649Z" fill="#4A4A4A"/>
<path d="M154 83.877C154 84.4299 153.553 84.8782 153 84.8782C152.448 84.8782 152 84.4299 152 83.877C152 83.324 152.448 82.8758 153 82.8758C153.553 82.8758 154 83.324 154 83.877Z" fill="#4A4A4A"/>
<path d="M154 93.889C154 94.442 153.553 94.8902 153 94.8902C152.448 94.8902 152 94.442 152 93.889C152 93.3361 152.448 92.8878 153 92.8878C153.553 92.8878 154 93.3361 154 93.889Z" fill="#4A4A4A"/>
<path d="M154 103.901C154 104.454 153.553 104.902 153 104.902C152.448 104.902 152 104.454 152 103.901C152 103.348 152.448 102.9 153 102.9C153.553 102.9 154 103.348 154 103.901Z" fill="#4A4A4A"/>
<path d="M154 113.913C154 114.466 153.553 114.914 153 114.914C152.448 114.914 152 114.466 152 113.913C152 113.36 152.448 112.912 153 112.912C153.553 112.912 154 113.36 154 113.913Z" fill="#4A4A4A"/>
<path d="M154 123.925C154 124.478 153.553 124.926 153 124.926C152.448 124.926 152 124.478 152 123.925C152 123.372 152.448 122.924 153 122.924C153.553 122.924 154 123.372 154 123.925Z" fill="#4A4A4A"/>
<path d="M154 133.937C154 134.49 153.553 134.938 153 134.938C152.448 134.938 152 134.49 152 133.937C152 133.384 152.448 132.936 153 132.936C153.553 132.936 154 133.384 154 133.937Z" fill="#4A4A4A"/>
<path d="M154 143.949C154 144.502 153.553 144.951 153 144.951C152.448 144.951 152 144.502 152 143.949C152 143.396 152.448 142.948 153 142.948C153.553 142.948 154 143.396 154 143.949Z" fill="#4A4A4A"/>
<path d="M164 73.8649C164 74.4179 163.553 74.8661 163 74.8661C162.448 74.8661 162 74.4179 162 73.8649C162 73.312 162.448 72.8637 163 72.8637C163.553 72.8637 164 73.312 164 73.8649Z" fill="#4A4A4A"/>
<path d="M164 83.877C164 84.4299 163.553 84.8782 163 84.8782C162.448 84.8782 162 84.4299 162 83.877C162 83.324 162.448 82.8758 163 82.8758C163.553 82.8758 164 83.324 164 83.877Z" fill="#4A4A4A"/>
<path d="M164 93.889C164 94.442 163.553 94.8902 163 94.8902C162.448 94.8902 162 94.442 162 93.889C162 93.3361 162.448 92.8878 163 92.8878C163.553 92.8878 164 93.3361 164 93.889Z" fill="#4A4A4A"/>
<path d="M164 103.901C164 104.454 163.553 104.902 163 104.902C162.448 104.902 162 104.454 162 103.901C162 103.348 162.448 102.9 163 102.9C163.553 102.9 164 103.348 164 103.901Z" fill="#4A4A4A"/>
<path d="M164 113.913C164 114.466 163.553 114.914 163 114.914C162.448 114.914 162 114.466 162 113.913C162 113.36 162.448 112.912 163 112.912C163.553 112.912 164 113.36 164 113.913Z" fill="#4A4A4A"/>
<path d="M164 123.925C164 124.478 163.553 124.926 163 124.926C162.448 124.926 162 124.478 162 123.925C162 123.372 162.448 122.924 163 122.924C163.553 122.924 164 123.372 164 123.925Z" fill="#4A4A4A"/>
<path d="M164 133.937C164 134.49 163.553 134.938 163 134.938C162.448 134.938 162 134.49 162 133.937C162 133.384 162.448 132.936 163 132.936C163.553 132.936 164 133.384 164 133.937Z" fill="#4A4A4A"/>
<path d="M164 143.949C164 144.502 163.553 144.951 163 144.951C162.448 144.951 162 144.502 162 143.949C162 143.396 162.448 142.948 163 142.948C163.553 142.948 164 143.396 164 143.949Z" fill="#4A4A4A"/>
<path d="M174 73.8649C174 74.4179 173.553 74.8661 173 74.8661C172.448 74.8661 172 74.4179 172 73.8649C172 73.312 172.448 72.8637 173 72.8637C173.553 72.8637 174 73.312 174 73.8649Z" fill="#4A4A4A"/>
<path d="M174 83.877C174 84.4299 173.553 84.8782 173 84.8782C172.448 84.8782 172 84.4299 172 83.877C172 83.324 172.448 82.8758 173 82.8758C173.553 82.8758 174 83.324 174 83.877Z" fill="#4A4A4A"/>
<path d="M174 93.889C174 94.442 173.553 94.8902 173 94.8902C172.448 94.8902 172 94.442 172 93.889C172 93.3361 172.448 92.8878 173 92.8878C173.553 92.8878 174 93.3361 174 93.889Z" fill="#4A4A4A"/>
<path d="M174 103.901C174 104.454 173.553 104.902 173 104.902C172.448 104.902 172 104.454 172 103.901C172 103.348 172.448 102.9 173 102.9C173.553 102.9 174 103.348 174 103.901Z" fill="#4A4A4A"/>
<path d="M174 113.913C174 114.466 173.553 114.914 173 114.914C172.448 114.914 172 114.466 172 113.913C172 113.36 172.448 112.912 173 112.912C173.553 112.912 174 113.36 174 113.913Z" fill="#4A4A4A"/>
<path d="M174 123.925C174 124.478 173.553 124.926 173 124.926C172.448 124.926 172 124.478 172 123.925C172 123.372 172.448 122.924 173 122.924C173.553 122.924 174 123.372 174 123.925Z" fill="#4A4A4A"/>
<path d="M174 133.937C174 134.49 173.553 134.938 173 134.938C172.448 134.938 172 134.49 172 133.937C172 133.384 172.448 132.936 173 132.936C173.553 132.936 174 133.384 174 133.937Z" fill="#4A4A4A"/>
<path d="M174 143.949C174 144.502 173.553 144.951 173 144.951C172.448 144.951 172 144.502 172 143.949C172 143.396 172.448 142.948 173 142.948C173.553 142.948 174 143.396 174 143.949Z" fill="#4A4A4A"/>
<path d="M184 73.8649C184 74.4179 183.553 74.8661 183 74.8661C182.448 74.8661 182 74.4179 182 73.8649C182 73.312 182.448 72.8637 183 72.8637C183.553 72.8637 184 73.312 184 73.8649Z" fill="#4A4A4A"/>
<path d="M184 83.877C184 84.4299 183.553 84.8782 183 84.8782C182.448 84.8782 182 84.4299 182 83.877C182 83.324 182.448 82.8758 183 82.8758C183.553 82.8758 184 83.324 184 83.877Z" fill="#4A4A4A"/>
<path d="M184 93.889C184 94.442 183.553 94.8902 183 94.8902C182.448 94.8902 182 94.442 182 93.889C182 93.3361 182.448 92.8878 183 92.8878C183.553 92.8878 184 93.3361 184 93.889Z" fill="#4A4A4A"/>
<path d="M184 103.901C184 104.454 183.553 104.902 183 104.902C182.448 104.902 182 104.454 182 103.901C182 103.348 182.448 102.9 183 102.9C183.553 102.9 184 103.348 184 103.901Z" fill="#4A4A4A"/>
<path d="M184 113.913C184 114.466 183.553 114.914 183 114.914C182.448 114.914 182 114.466 182 113.913C182 113.36 182.448 112.912 183 112.912C183.553 112.912 184 113.36 184 113.913Z" fill="#4A4A4A"/>
<path d="M184 123.925C184 124.478 183.553 124.926 183 124.926C182.448 124.926 182 124.478 182 123.925C182 123.372 182.448 122.924 183 122.924C183.553 122.924 184 123.372 184 123.925Z" fill="#4A4A4A"/>
<path d="M184 133.937C184 134.49 183.553 134.938 183 134.938C182.448 134.938 182 134.49 182 133.937C182 133.384 182.448 132.936 183 132.936C183.553 132.936 184 133.384 184 133.937Z" fill="#4A4A4A"/>
<path d="M184 143.949C184 144.502 183.553 144.951 183 144.951C182.448 144.951 182 144.502 182 143.949C182 143.396 182.448 142.948 183 142.948C183.553 142.948 184 143.396 184 143.949Z" fill="#4A4A4A"/>
</g>
</svg>
