<svg width="350" height="325" viewBox="0 0 350 325" fill="none" xmlns="http://www.w3.org/2000/svg">
<mask id="mask0_108_20" style="mask-type:alpha" maskUnits="userSpaceOnUse" x="0" y="0" width="350" height="325">
<rect width="350" height="325" rx="8" fill="url(#paint0_linear_108_20)" fill-opacity="0.5"/>
</mask>
<g mask="url(#mask0_108_20)">
<g filter="url(#filter0_b_108_20)">
<path d="M324.427 197.677C321.28 197.679 318.231 198.733 315.799 200.66C313.367 202.588 311.703 205.269 311.091 208.247C310.478 211.225 310.955 214.315 312.44 216.992C313.925 219.669 316.326 221.766 319.235 222.927C322.143 224.088 325.378 224.239 328.39 223.357C331.401 222.474 334.002 220.612 335.749 218.087C337.497 215.561 338.283 212.53 337.973 209.509C337.663 206.487 336.277 203.663 334.051 201.517C332.788 200.297 331.288 199.329 329.636 198.67C327.985 198.011 326.215 197.674 324.427 197.677Z" fill="url(#paint1_linear_108_20)" fill-opacity="0.5"/>
<path d="M400.165 145.198C400.163 145.184 400.163 145.169 400.165 145.154C399.734 143.332 398.784 141.661 397.421 140.332C396.058 139.003 394.338 138.067 392.453 137.631C377.264 134.057 353.369 137.867 326.889 148.095C300.201 158.42 275.194 173.663 258.292 189.997C252.875 195.195 247.842 200.753 243.23 206.631C231.849 206.139 221.823 207.703 213.377 211.258C183.946 223.751 175.541 255.726 173.303 268.855C172.98 270.72 173.106 272.632 173.674 274.443C174.241 276.253 175.234 277.913 176.575 279.292C177.916 280.672 179.569 281.735 181.405 282.397C183.242 283.06 185.212 283.305 187.162 283.114H187.229L220.013 279.662C220.054 280.065 220.1 280.434 220.135 280.773C220.557 284.627 222.338 288.224 225.182 290.961L241.181 306.405C244.015 309.152 247.743 310.873 251.738 311.278L252.833 311.391L249.265 342.977V343.041C249.083 344.743 249.271 346.462 249.816 348.089C250.362 349.716 251.254 351.216 252.434 352.491C253.615 353.767 255.058 354.791 256.673 355.498C258.287 356.205 260.037 356.58 261.809 356.597C262.518 356.598 263.226 356.542 263.925 356.43C277.61 354.306 310.742 346.296 323.658 317.754C327.312 309.66 328.928 300.028 328.474 289.068C334.595 284.629 340.378 279.774 345.779 274.539C362.819 258.185 378.671 234.259 389.262 208.888C399.808 183.634 403.779 160.411 400.165 145.198ZM345.596 231.186C341.407 235.23 336.07 237.985 330.258 239.103C324.447 240.22 318.422 239.65 312.946 237.463C307.471 235.277 302.791 231.573 299.498 226.821C296.205 222.068 294.447 216.48 294.447 210.763C294.447 205.047 296.205 199.459 299.498 194.706C302.791 189.953 307.471 186.25 312.946 184.063C318.422 181.877 324.447 181.307 330.258 182.424C336.07 183.541 341.407 186.297 345.596 190.341C348.403 193.008 350.632 196.187 352.154 199.693C353.675 203.199 354.459 206.962 354.459 210.763C354.459 214.564 353.675 218.327 352.154 221.833C350.632 225.339 348.403 228.519 345.596 231.186Z" fill="url(#paint2_linear_108_20)" fill-opacity="0.5"/>
<path d="M239.346 310.594C237.374 310.358 235.38 310.825 233.74 311.907C230.483 314.056 227.21 316.18 223.907 318.25C217.225 322.439 209.233 315.084 213.203 308.416L219.396 298.091C220.282 296.841 220.775 295.372 220.816 293.859C220.858 292.346 220.446 290.854 219.63 289.561C218.815 288.268 217.63 287.23 216.218 286.57C214.806 285.911 213.226 285.658 211.669 285.843C204.796 286.681 198.407 289.701 193.508 294.428C191.643 296.232 185.97 301.71 182.916 322.582C182.047 328.577 181.5 334.612 181.275 340.662C181.247 341.712 181.438 342.756 181.835 343.734C182.232 344.712 182.829 345.603 183.589 346.355C184.349 347.107 185.257 347.705 186.261 348.113C187.264 348.521 188.342 348.731 189.431 348.73H189.634C195.911 348.516 202.171 347.991 208.392 347.157C230.039 344.207 235.717 338.729 237.583 336.93C242.505 332.202 245.628 326.01 246.447 319.356C246.709 317.286 246.108 315.201 244.777 313.558C243.445 311.915 241.492 310.849 239.346 310.594Z" fill="url(#paint3_linear_108_20)" fill-opacity="0.5"/>
</g>
</g>
<defs>
<filter id="filter0_b_108_20" x="163.128" y="126.32" width="248.342" height="240.278" filterUnits="userSpaceOnUse" color-interpolation-filters="sRGB">
<feFlood flood-opacity="0" result="BackgroundImageFix"/>
<feGaussianBlur in="BackgroundImageFix" stdDeviation="5"/>
<feComposite in2="SourceAlpha" operator="in" result="effect1_backgroundBlur_108_20"/>
<feBlend mode="normal" in="SourceGraphic" in2="effect1_backgroundBlur_108_20" result="shape"/>
</filter>
<linearGradient id="paint0_linear_108_20" x1="8.89037" y1="7.87235e-06" x2="366.25" y2="297.003" gradientUnits="userSpaceOnUse">
<stop stop-color="#595959"/>
<stop offset="1" stop-color="#3D3D3D"/>
</linearGradient>
<linearGradient id="paint1_linear_108_20" x1="247.527" y1="177.396" x2="325.862" y2="325.122" gradientUnits="userSpaceOnUse">
<stop stop-color="#595959"/>
<stop offset="1" stop-color="#2B2E33"/>
</linearGradient>
<linearGradient id="paint2_linear_108_20" x1="247.527" y1="177.396" x2="325.862" y2="325.122" gradientUnits="userSpaceOnUse">
<stop stop-color="#595959"/>
<stop offset="1" stop-color="#2B2E33"/>
</linearGradient>
<linearGradient id="paint3_linear_108_20" x1="247.527" y1="177.396" x2="325.862" y2="325.122" gradientUnits="userSpaceOnUse">
<stop stop-color="#595959"/>
<stop offset="1" stop-color="#2B2E33"/>
</linearGradient>
</defs>
</svg>
